solid OBJECT
  facet normal -1 -0 -0
    outer loop
      vertex 175.12660217285156 62.637725830078125 27.450000762939453
      vertex 175.12660217285156 53.153957366943359 27.450000762939453
      vertex 175.12660217285156 53.153957366943359 31.296865463256836
    endloop
  endfacet
  facet normal -1 -0 -0
    outer loop
      vertex 175.12660217285156 62.637725830078125 27.450000762939453
      vertex 175.12660217285156 53.153957366943359 31.296865463256836
      vertex 175.12660217285156 62.637725830078125 31.296865463256836
    endloop
  endfacet
endsolid OBJECT
