solid OBJECT
  facet normal 0.9781474480525264 0.20791240912540634 -0
    outer loop
      vertex 57.440914154052734 69.037117004394531 27.450000762939453
      vertex 54.064834594726562 84.920265197753906 27.450000762939453
      vertex 54.064834594726562 84.920265197753906 32.541404724121094
    endloop
  endfacet
  facet normal 0.9781474480525264 0.20791240912540634 0
    outer loop
      vertex 57.440914154052734 69.037117004394531 27.450000762939453
      vertex 54.064834594726562 84.920265197753906 32.541404724121094
      vertex 57.440914154052734 69.037117004394531 32.541404724121094
    endloop
  endfacet
endsolid OBJECT
