solid OBJECT
  facet normal -0 -1 -0
    outer loop
      vertex 92.221656799316406 69.534469604492188 49.900001525878906
      vertex 92.221656799316406 69.534469604492188 54.252998352050781
      vertex 80.965492248535156 69.534469604492188 54.252998352050781
    endloop
  endfacet
  facet normal 0 -1 0
    outer loop
      vertex 92.221656799316406 69.534469604492188 49.900001525878906
      vertex 80.965492248535156 69.534469604492188 54.252998352050781
      vertex 80.965492248535156 69.534469604492188 49.900001525878906
    endloop
  endfacet
endsolid OBJECT
