solid OBJECT
  facet normal 0.9781484256904609 0.20790780966397818 0
    outer loop
      vertex 80.965492248535156 69.534469604492188 27.450000762939453
      vertex 80.965492248535156 69.534469604492188 5
      vertex 77.86309814453125 84.13037109375 11
    endloop
  endfacet
  facet normal 0.9781484256904609 0.20790780966397818 0
    outer loop
      vertex 80.965492248535156 69.534469604492188 27.450000762939453
      vertex 77.86309814453125 84.13037109375 11
      vertex 77.86309814453125 84.13037109375 19.98274040222168
    endloop
  endfacet
  facet normal 0.97814774075855648 0.20791103189059354 -8.192705159289178e-06
    outer loop
      vertex 76.673797607421875 89.725372314453125 5
      vertex 77.86309814453125 84.13037109375 11
      vertex 80.965492248535156 69.534469604492188 5
    endloop
  endfacet
  facet normal 0.9781484256904609 0.20790780966397818 0
    outer loop
      vertex 80.965492248535156 69.534469604492188 27.450000762939453
      vertex 77.86309814453125 84.13037109375 19.98274040222168
      vertex 80.965492248535156 69.534469604492188 49.900001525878906
    endloop
  endfacet
  facet normal 0.97814595402255811 0.20791943783422392 0
    outer loop
      vertex 76.673797607421875 89.725372314453125 49.900001525878906
      vertex 77.86309814453125 84.13037109375 19.98274040222168
      vertex 76.673797607421875 89.725372314453125 19.98274040222168
    endloop
  endfacet
  facet normal 0.97814774079006295 0.20791103189729043 1.643072564501831e-06
    outer loop
      vertex 80.965492248535156 69.534469604492188 49.900001525878906
      vertex 77.86309814453125 84.13037109375 19.98274040222168
      vertex 76.673797607421875 89.725372314453125 49.900001525878906
    endloop
  endfacet
  facet normal 0.97814595402255811 0.20791943783422392 -0
    outer loop
      vertex 76.673797607421875 89.725372314453125 5
      vertex 76.673797607421875 89.725372314453125 11
      vertex 77.86309814453125 84.13037109375 11
    endloop
  endfacet
  facet normal -0 -0 1
    outer loop
      vertex 144.86116027832031 94.270469665527344 49.900001525878906
      vertex 144.86116027832031 90.844093322753906 49.900001525878906
      vertex 152.42752075195312 90.844093322753906 49.900001525878906
    endloop
  endfacet
  facet normal 0 0 1
    outer loop
      vertex 144.86116027832031 94.270469665527344 49.900001525878906
      vertex 152.42752075195312 90.844093322753906 49.900001525878906
      vertex 152.42752075195312 94.270469665527344 49.900001525878906
    endloop
  endfacet
  facet normal -0 -0 1
    outer loop
      vertex 152.42752075195312 94.270469665527344 49.900001525878906
      vertex 152.42752075195312 90.844093322753906 49.900001525878906
      vertex 159.99388122558594 90.844093322753906 49.900001525878906
    endloop
  endfacet
  facet normal 0 0 1
    outer loop
      vertex 152.42752075195312 94.270469665527344 49.900001525878906
      vertex 159.99388122558594 90.844093322753906 49.900001525878906
      vertex 159.99388122558594 94.270469665527344 49.900001525878906
    endloop
  endfacet
  facet normal -0 -0 1
    outer loop
      vertex 152.42752075195312 90.844093322753906 49.900001525878906
      vertex 152.42752075195312 87.417716979980469 49.900001525878906
      vertex 159.99388122558594 87.417716979980469 49.900001525878906
    endloop
  endfacet
  facet normal 0 0 1
    outer loop
      vertex 152.42752075195312 90.844093322753906 49.900001525878906
      vertex 159.99388122558594 87.417716979980469 49.900001525878906
      vertex 159.99388122558594 90.844093322753906 49.900001525878906
    endloop
  endfacet
  facet normal -0 0 1
    outer loop
      vertex 144.86116027832031 89.130905151367188 49.900001525878906
      vertex 152.42752075195312 90.844093322753906 49.900001525878906
      vertex 144.86116027832031 90.844093322753906 49.900001525878906
    endloop
  endfacet
  facet normal 0 -0 1
    outer loop
      vertex 152.42752075195312 87.417716979980469 49.900001525878906
      vertex 144.86116027832031 89.130905151367188 49.900001525878906
      vertex 144.86116027832031 87.417716979980469 49.900001525878906
    endloop
  endfacet
  facet normal 0 -0 1
    outer loop
      vertex 152.42752075195312 90.844093322753906 49.900001525878906
      vertex 144.86116027832031 89.130905151367188 49.900001525878906
      vertex 152.42752075195312 87.417716979980469 49.900001525878906
    endloop
  endfacet
  facet normal 0 0 1
    outer loop
      vertex 144.86116027832031 87.417716979980469 49.900001525878906
      vertex 159.99388122558594 80.564964294433594 49.900001525878906
      vertex 152.42752075195312 87.417716979980469 49.900001525878906
    endloop
  endfacet
  facet normal 0 0 1
    outer loop
      vertex 152.42752075195312 87.417716979980469 49.900001525878906
      vertex 159.99388122558594 80.564964294433594 49.900001525878906
      vertex 159.99388122558594 87.417716979980469 49.900001525878906
    endloop
  endfacet
  facet normal 0 -0 1
    outer loop
      vertex 152.42752075195312 94.270469665527344 49.900001525878906
      vertex 144.86116027832031 101.12321472167969 49.900001525878906
      vertex 144.86116027832031 94.270469665527344 49.900001525878906
    endloop
  endfacet
  facet normal 0 -0 1
    outer loop
      vertex 159.99388122558594 101.12321472167969 49.900001525878906
      vertex 152.42752075195312 94.270469665527344 49.900001525878906
      vertex 159.99388122558594 94.270469665527344 49.900001525878906
    endloop
  endfacet
  facet normal 0 0 1
    outer loop
      vertex 144.86116027832031 101.12321472167969 49.900001525878906
      vertex 152.42752075195312 94.270469665527344 49.900001525878906
      vertex 159.99388122558594 101.12321472167969 49.900001525878906
    endloop
  endfacet
  facet normal -0 -0 1
    outer loop
      vertex 129.72843933105469 94.270469665527344 49.900001525878906
      vertex 129.72843933105469 90.844093322753906 49.900001525878906
      vertex 137.2947998046875 90.844093322753906 49.900001525878906
    endloop
  endfacet
  facet normal 0 0 1
    outer loop
      vertex 129.72843933105469 94.270469665527344 49.900001525878906
      vertex 137.2947998046875 90.844093322753906 49.900001525878906
      vertex 137.2947998046875 94.270469665527344 49.900001525878906
    endloop
  endfacet
  facet normal -0 0 1
    outer loop
      vertex 137.2947998046875 90.844093322753906 49.900001525878906
      vertex 144.86116027832031 94.270469665527344 49.900001525878906
      vertex 137.2947998046875 94.270469665527344 49.900001525878906
    endloop
  endfacet
  facet normal 0 0 1
    outer loop
      vertex 145.88859558105469 69.534469604492188 49.900001525878906
      vertex 175.12660217285156 53.153957366943359 49.900001525878906
      vertex 175.12660217285156 74.275360107421875 49.900001525878906
    endloop
  endfacet
  facet normal -0 -0 1
    outer loop
      vertex 159.99388122558594 87.417716979980469 49.900001525878906
      vertex 159.99388122558594 80.564964294433594 49.900001525878906
      vertex 175.12660217285156 74.275360107421875 49.900001525878906
    endloop
  endfacet
  facet normal -0 -0 1
    outer loop
      vertex 175.12660217285156 74.275360107421875 49.900001525878906
      vertex 159.99388122558594 80.564964294433594 49.900001525878906
      vertex 147.73159790039062 77.603866577148438 49.900001525878906
    endloop
  endfacet
  facet normal 0 -0 1
    outer loop
      vertex 175.12660217285156 95.396766662597656 49.900001525878906
      vertex 159.99388122558594 87.417716979980469 49.900001525878906
      vertex 175.12660217285156 74.275360107421875 49.900001525878906
    endloop
  endfacet
  facet normal 0 -0 1
    outer loop
      vertex 175.12660217285156 53.153957366943359 49.900001525878906
      vertex 145.88859558105469 69.534469604492188 49.900001525878906
      vertex 156.07499694824219 53.153957366943359 49.900001525878906
    endloop
  endfacet
  facet normal 0 -0 1
    outer loop
      vertex 159.99388122558594 80.564964294433594 49.900001525878906
      vertex 141.13240051269531 79.364471435546875 49.900001525878906
      vertex 147.73159790039062 77.603866577148438 49.900001525878906
    endloop
  endfacet
  facet normal 0 -0 1
    outer loop
      vertex 175.12660217285156 74.275360107421875 49.900001525878906
      vertex 147.73159790039062 77.603866577148438 49.900001525878906
      vertex 145.88859558105469 69.534469604492188 49.900001525878906
    endloop
  endfacet
  facet normal -0 0 1
    outer loop
      vertex 144.86116027832031 89.130905151367188 49.900001525878906
      vertex 143.216796875 89.171066284179688 49.900001525878906
      vertex 144.86116027832031 87.417716979980469 49.900001525878906
    endloop
  endfacet
  facet normal -0 0 1
    outer loop
      vertex 141.13240051269531 79.364471435546875 49.900001525878906
      vertex 144.86116027832031 87.417716979980469 49.900001525878906
      vertex 143.216796875 89.171066284179688 49.900001525878906
    endloop
  endfacet
  facet normal 0 -0 1
    outer loop
      vertex 144.86116027832031 90.844093322753906 49.900001525878906
      vertex 143.216796875 89.171066284179688 49.900001525878906
      vertex 144.86116027832031 89.130905151367188 49.900001525878906
    endloop
  endfacet
  facet normal 0 -0 1
    outer loop
      vertex 159.99388122558594 80.564964294433594 49.900001525878906
      vertex 144.86116027832031 87.417716979980469 49.900001525878906
      vertex 141.13240051269531 79.364471435546875 49.900001525878906
    endloop
  endfacet
  facet normal -0 -0 1
    outer loop
      vertex 145.88859558105469 69.534469604492188 49.900001525878906
      vertex 137.02339172363281 53.153957366943359 49.900001525878906
      vertex 156.07499694824219 53.153957366943359 49.900001525878906
    endloop
  endfacet
  facet normal 0 -0 1
    outer loop
      vertex 175.12660217285156 95.396766662597656 49.900001525878906
      vertex 159.99388122558594 94.270469665527344 49.900001525878906
      vertex 159.99388122558594 90.844093322753906 49.900001525878906
    endloop
  endfacet
  facet normal -0 -0 1
    outer loop
      vertex 162.54759216308594 107.97596740722656 49.900001525878906
      vertex 159.99388122558594 101.12321472167969 49.900001525878906
      vertex 175.12660217285156 95.396766662597656 49.900001525878906
    endloop
  endfacet
  facet normal -0 0 1
    outer loop
      vertex 159.99388122558594 94.270469665527344 49.900001525878906
      vertex 175.12660217285156 95.396766662597656 49.900001525878906
      vertex 159.99388122558594 101.12321472167969 49.900001525878906
    endloop
  endfacet
  facet normal 0 0 1
    outer loop
      vertex 144.13209533691406 104.0621337890625 49.900001525878906
      vertex 159.99388122558594 101.12321472167969 49.900001525878906
      vertex 162.54759216308594 107.97596740722656 49.900001525878906
    endloop
  endfacet
  facet normal -0 0 1
    outer loop
      vertex 159.99388122558594 87.417716979980469 49.900001525878906
      vertex 175.12660217285156 95.396766662597656 49.900001525878906
      vertex 159.99388122558594 90.844093322753906 49.900001525878906
    endloop
  endfacet
  facet normal 0 0 1
    outer loop
      vertex 144.86116027832031 94.270469665527344 49.900001525878906
      vertex 142.88580322265625 90.728271484375 49.900001525878906
      vertex 144.86116027832031 90.844093322753906 49.900001525878906
    endloop
  endfacet
  facet normal 0 -0 1
    outer loop
      vertex 144.86116027832031 101.12321472167969 49.900001525878906
      vertex 137.2947998046875 94.270469665527344 49.900001525878906
      vertex 144.86116027832031 94.270469665527344 49.900001525878906
    endloop
  endfacet
  facet normal -0 0 1
    outer loop
      vertex 125.71659851074219 100.14830017089844 49.900001525878906
      vertex 144.86116027832031 101.12321472167969 49.900001525878906
      vertex 144.13209533691406 104.0621337890625 49.900001525878906
    endloop
  endfacet
  facet normal 0 -0 1
    outer loop
      vertex 159.99388122558594 101.12321472167969 49.900001525878906
      vertex 144.13209533691406 104.0621337890625 49.900001525878906
      vertex 144.86116027832031 101.12321472167969 49.900001525878906
    endloop
  endfacet
  facet normal 0 0 1
    outer loop
      vertex 137.2947998046875 90.844093322753906 49.900001525878906
      vertex 142.88580322265625 90.728271484375 49.900001525878906
      vertex 144.86116027832031 94.270469665527344 49.900001525878906
    endloop
  endfacet
  facet normal 0 -0 1
    outer loop
      vertex 144.86116027832031 90.844093322753906 49.900001525878906
      vertex 142.88580322265625 90.728271484375 49.900001525878906
      vertex 143.216796875 89.171066284179688 49.900001525878906
    endloop
  endfacet
  facet normal 0 0 1
    outer loop
      vertex 137.02339172363281 53.153957366943359 49.900001525878906
      vertex 145.88859558105469 69.534469604492188 49.900001525878906
      vertex 124.24755859375 69.534469604492188 49.900001525878906
    endloop
  endfacet
  facet normal -0 -0 1
    outer loop
      vertex 137.02339172363281 53.153957366943359 49.900001525878906
      vertex 124.24755859375 69.534469604492188 49.900001525878906
      vertex 117.97179412841797 53.153957366943359 49.900001525878906
    endloop
  endfacet
  facet normal -0 -0 1
    outer loop
      vertex 102.60652923583984 69.534469604492188 49.900001525878906
      vertex 98.920196533203125 53.153957366943359 49.900001525878906
      vertex 117.97179412841797 53.153957366943359 49.900001525878906
    endloop
  endfacet
  facet normal 0 0 1
    outer loop
      vertex 102.60652923583984 69.534469604492188 49.900001525878906
      vertex 117.97179412841797 53.153957366943359 49.900001525878906
      vertex 124.24755859375 69.534469604492188 49.900001525878906
    endloop
  endfacet
  facet normal 0 0 1
    outer loop
      vertex 98.920196533203125 53.153957366943359 49.900001525878906
      vertex 102.60652923583984 69.534469604492188 49.900001525878906
      vertex 80.965492248535156 69.534469604492188 49.900001525878906
    endloop
  endfacet
  facet normal -0 -0 1
    outer loop
      vertex 98.920196533203125 53.153957366943359 49.900001525878906
      vertex 80.965492248535156 69.534469604492188 49.900001525878906
      vertex 79.868598937988281 53.153957366943359 49.900001525878906
    endloop
  endfacet
  facet normal 0 0 1
    outer loop
      vertex 57.440914154052734 69.037117004394531 49.900001525878906
      vertex 60.816997528076172 53.153957366943359 49.900001525878906
      vertex 80.965492248535156 69.534469604492188 49.900001525878906
    endloop
  endfacet
  facet normal 0 -0 1
    outer loop
      vertex 79.868598937988281 53.153957366943359 49.900001525878906
      vertex 80.965492248535156 69.534469604492188 49.900001525878906
      vertex 60.816997528076172 53.153957366943359 49.900001525878906
    endloop
  endfacet
  facet normal 0 0 1
    outer loop
      vertex 57.440914154052734 69.037117004394531 49.900001525878906
      vertex 80.965492248535156 69.534469604492188 49.900001525878906
      vertex 54.064834594726562 84.920265197753906 49.900001525878906
    endloop
  endfacet
  facet normal 0 0 1
    outer loop
      vertex 129.72843933105469 90.844093322753906 49.900001525878906
      vertex 131.1822509765625 88.240570068359375 49.900001525878906
      vertex 137.2947998046875 90.844093322753906 49.900001525878906
    endloop
  endfacet
  facet normal -0 0 1
    outer loop
      vertex 137.2947998046875 90.844093322753906 49.900001525878906
      vertex 131.1822509765625 88.240570068359375 49.900001525878906
      vertex 142.88580322265625 90.728271484375 49.900001525878906
    endloop
  endfacet
  facet normal 0 0 1
    outer loop
      vertex 107.30109405517578 96.234466552734375 49.900001525878906
      vertex 129.72843933105469 90.844093322753906 49.900001525878906
      vertex 129.72843933105469 94.270469665527344 49.900001525878906
    endloop
  endfacet
  facet normal 0 0 1
    outer loop
      vertex 125.71659851074219 100.14830017089844 49.900001525878906
      vertex 129.72843933105469 94.270469665527344 49.900001525878906
      vertex 137.2947998046875 94.270469665527344 49.900001525878906
    endloop
  endfacet
  facet normal 0 -0 1
    outer loop
      vertex 129.72843933105469 90.844093322753906 49.900001525878906
      vertex 119.47869873046875 85.75286865234375 49.900001525878906
      vertex 131.1822509765625 88.240570068359375 49.900001525878906
    endloop
  endfacet
  facet normal -0 -0 1
    outer loop
      vertex 80.965492248535156 69.534469604492188 49.900001525878906
      vertex 76.673797607421875 89.725372314453125 49.900001525878906
      vertex 65.369316101074219 87.322822570800781 49.900001525878906
    endloop
  endfacet
  facet normal 0 0 1
    outer loop
      vertex 54.064834594726562 84.920265197753906 49.900001525878906
      vertex 80.965492248535156 69.534469604492188 49.900001525878906
      vertex 65.369316101074219 87.322822570800781 49.900001525878906
    endloop
  endfacet
  facet normal 0 0 1
    outer loop
      vertex 107.30109405517578 96.234466552734375 49.900001525878906
      vertex 129.72843933105469 94.270469665527344 49.900001525878906
      vertex 125.71659851074219 100.14830017089844 49.900001525878906
    endloop
  endfacet
  facet normal 0 0 1
    outer loop
      vertex 119.47869873046875 85.75286865234375 49.900001525878906
      vertex 129.72843933105469 90.844093322753906 49.900001525878906
      vertex 107.30109405517578 96.234466552734375 49.900001525878906
    endloop
  endfacet
  facet normal 0 0 1
    outer loop
      vertex 144.86116027832031 101.12321472167969 49.900001525878906
      vertex 125.71659851074219 100.14830017089844 49.900001525878906
      vertex 137.2947998046875 94.270469665527344 49.900001525878906
    endloop
  endfacet
  facet normal -0.9781474480525264 -0.20791240912540634 -0
    outer loop
      vertex 54.064834594726562 84.920265197753906 27.450000762939453
      vertex 54.064834594726562 84.920265197753906 5
      vertex 57.440914154052734 69.037117004394531 5
    endloop
  endfacet
  facet normal -0.9781474480525264 -0.20791240912540634 -0
    outer loop
      vertex 54.064834594726562 84.920265197753906 27.450000762939453
      vertex 57.440914154052734 69.037117004394531 49.900001525878906
      vertex 54.064834594726562 84.920265197753906 49.900001525878906
    endloop
  endfacet
  facet normal -0.97814743939718152 -0.20791244984544871 3.0110627054718673e-08
    outer loop
      vertex 60.816997528076172 53.153957366943359 27.450000762939453
      vertex 54.064834594726562 84.920265197753906 27.450000762939453
      vertex 57.440914154052734 69.037117004394531 5
    endloop
  endfacet
  facet normal -0.97814743939718152 -0.20791244984544871 -3.0110627054718673e-08
    outer loop
      vertex 54.064834594726562 84.920265197753906 27.450000762939453
      vertex 60.816997528076172 53.153957366943359 27.450000762939453
      vertex 57.440914154052734 69.037117004394531 49.900001525878906
    endloop
  endfacet
  facet normal -0.97814743074184241 -0.20791249056546091 0
    outer loop
      vertex 60.816997528076172 53.153957366943359 27.450000762939453
      vertex 60.816997528076172 53.153957366943359 49.900001525878906
      vertex 57.440914154052734 69.037117004394531 49.900001525878906
    endloop
  endfacet
  facet normal -0.97814743074184241 -0.20791249056546091 0
    outer loop
      vertex 60.816997528076172 53.153957366943359 5
      vertex 60.816997528076172 53.153957366943359 27.450000762939453
      vertex 57.440914154052734 69.037117004394531 5
    endloop
  endfacet
  facet normal -0 -1 -0
    outer loop
      vertex 60.816997528076172 53.153957366943359 27.450000762939453
      vertex 60.816997528076172 53.153957366943359 5
      vertex 79.868598937988281 53.153957366943359 5
    endloop
  endfacet
  facet normal 0 -1 0
    outer loop
      vertex 60.816997528076172 53.153957366943359 27.450000762939453
      vertex 98.920196533203125 53.153957366943359 5
      vertex 117.97179412841797 53.153957366943359 5
    endloop
  endfacet
  facet normal 0 -1 0
    outer loop
      vertex 60.816997528076172 53.153957366943359 27.450000762939453
      vertex 79.868598937988281 53.153957366943359 5
      vertex 98.920196533203125 53.153957366943359 5
    endloop
  endfacet
  facet normal 0 -1 -0
    outer loop
      vertex 79.868598937988281 53.153957366943359 49.900001525878906
      vertex 60.816997528076172 53.153957366943359 49.900001525878906
      vertex 60.816997528076172 53.153957366943359 27.450000762939453
    endloop
  endfacet
  facet normal 0 -1 0
    outer loop
      vertex 60.816997528076172 53.153957366943359 27.450000762939453
      vertex 98.920196533203125 53.153957366943359 49.900001525878906
      vertex 79.868598937988281 53.153957366943359 49.900001525878906
    endloop
  endfacet
  facet normal 0 -1 0
    outer loop
      vertex 117.97179412841797 53.153957366943359 49.900001525878906
      vertex 98.920196533203125 53.153957366943359 49.900001525878906
      vertex 60.816997528076172 53.153957366943359 27.450000762939453
    endloop
  endfacet
  facet normal -0 -1 0
    outer loop
      vertex 117.97179412841797 53.153957366943359 49.900001525878906
      vertex 60.816997528076172 53.153957366943359 27.450000762939453
      vertex 117.97179412841797 53.153957366943359 5
    endloop
  endfacet
  facet normal -0 -1 0
    outer loop
      vertex 175.12660217285156 53.153957366943359 27.450000762939453
      vertex 137.02339172363281 53.153957366943359 5
      vertex 156.07499694824219 53.153957366943359 5
    endloop
  endfacet
  facet normal -0 -1 0
    outer loop
      vertex 156.07499694824219 53.153957366943359 5
      vertex 175.12660217285156 53.153957366943359 5
      vertex 175.12660217285156 53.153957366943359 27.450000762939453
    endloop
  endfacet
  facet normal 0 -1 -0
    outer loop
      vertex 117.97179412841797 53.153957366943359 5
      vertex 175.12660217285156 53.153957366943359 27.450000762939453
      vertex 117.97179412841797 53.153957366943359 49.900001525878906
    endloop
  endfacet
  facet normal 0 -1 -0
    outer loop
      vertex 175.12660217285156 53.153957366943359 27.450000762939453
      vertex 137.02339172363281 53.153957366943359 49.900001525878906
      vertex 117.97179412841797 53.153957366943359 49.900001525878906
    endloop
  endfacet
  facet normal 0 -1 0
    outer loop
      vertex 175.12660217285156 53.153957366943359 27.450000762939453
      vertex 175.12660217285156 53.153957366943359 49.900001525878906
      vertex 156.07499694824219 53.153957366943359 49.900001525878906
    endloop
  endfacet
  facet normal 0 -1 0
    outer loop
      vertex 156.07499694824219 53.153957366943359 49.900001525878906
      vertex 137.02339172363281 53.153957366943359 49.900001525878906
      vertex 175.12660217285156 53.153957366943359 27.450000762939453
    endloop
  endfacet
  facet normal 0 -1 -0
    outer loop
      vertex 137.02339172363281 53.153957366943359 5
      vertex 175.12660217285156 53.153957366943359 27.450000762939453
      vertex 117.97179412841797 53.153957366943359 5
    endloop
  endfacet
  facet normal 1 0 0
    outer loop
      vertex 175.12660217285156 53.153957366943359 27.450000762939453
      vertex 175.12660217285156 53.153957366943359 5
      vertex 175.12660217285156 74.275360107421875 5
    endloop
  endfacet
  facet normal 1 -0 0
    outer loop
      vertex 175.12660217285156 53.153957366943359 27.450000762939453
      vertex 175.12660217285156 74.275360107421875 49.900001525878906
      vertex 175.12660217285156 53.153957366943359 49.900001525878906
    endloop
  endfacet
  facet normal 1 0 -0
    outer loop
      vertex 175.12660217285156 74.275360107421875 49.900001525878906
      vertex 175.12660217285156 53.153957366943359 27.450000762939453
      vertex 175.12660217285156 74.275360107421875 5
    endloop
  endfacet
  facet normal 1 0 0
    outer loop
      vertex 175.12660217285156 74.275360107421875 49.900001525878906
      vertex 175.12660217285156 74.275360107421875 5
      vertex 175.12660217285156 95.396766662597656 27.450000762939453
    endloop
  endfacet
  facet normal 1 0 0
    outer loop
      vertex 175.12660217285156 74.275360107421875 49.900001525878906
      vertex 175.12660217285156 95.396766662597656 27.450000762939453
      vertex 175.12660217285156 95.396766662597656 49.900001525878906
    endloop
  endfacet
  facet normal 1 -0 -0
    outer loop
      vertex 175.12660217285156 95.396766662597656 5
      vertex 175.12660217285156 95.396766662597656 27.450000762939453
      vertex 175.12660217285156 74.275360107421875 5
    endloop
  endfacet
  facet normal 0.70711214203693928 0.70710142029551282 0
    outer loop
      vertex 175.12660217285156 95.396766662597656 27.450000762939453
      vertex 175.12660217285156 95.396766662597656 5
      vertex 162.54759216308594 107.97596740722656 5
    endloop
  endfacet
  facet normal 0.70711214203693928 0.70710142029551282 0
    outer loop
      vertex 175.12660217285156 95.396766662597656 27.450000762939453
      vertex 162.54759216308594 107.97596740722656 5
      vertex 162.54759216308594 107.97596740722656 27.450000762939453
    endloop
  endfacet
  facet normal 0.70711214203693928 0.70710142029551282 0
    outer loop
      vertex 175.12660217285156 95.396766662597656 49.900001525878906
      vertex 175.12660217285156 95.396766662597656 27.450000762939453
      vertex 162.54759216308594 107.97596740722656 27.450000762939453
    endloop
  endfacet
  facet normal 0.70711214203693928 0.70710142029551282 0
    outer loop
      vertex 175.12660217285156 95.396766662597656 49.900001525878906
      vertex 162.54759216308594 107.97596740722656 27.450000762939453
      vertex 162.54759216308594 107.97596740722656 49.900001525878906
    endloop
  endfacet
  facet normal -0.20788596810063609 0.97815306791261536 0
    outer loop
      vertex 121.11272430419922 99.169845581054688 27.450000762939453
      vertex 134.92434692382812 102.10521697998047 27.450000762939453
      vertex 134.92434692382812 102.10521697998047 16.225000381469727
    endloop
  endfacet
  facet normal -0.20788596810063609 0.97815306791261536 -0
    outer loop
      vertex 121.11272430419922 99.169845581054688 27.450000762939453
      vertex 134.92434692382812 102.10521697998047 16.225000381469727
      vertex 121.11272430419922 99.169845581054688 16.225000381469727
    endloop
  endfacet
  facet normal -0.20788622658590769 0.97815301297694357 0
    outer loop
      vertex 144.13209533691406 104.0621337890625 5
      vertex 162.54759216308594 107.97596740722656 27.450000762939453
      vertex 162.54759216308594 107.97596740722656 5
    endloop
  endfacet
  facet normal -0.20788622658590769 0.97815301297694357 0
    outer loop
      vertex 125.71659851074219 100.14830017089844 5
      vertex 134.92434692382812 102.10521697998047 16.225000381469727
      vertex 144.13209533691406 104.0621337890625 5
    endloop
  endfacet
  facet normal -0.20788622658590769 0.97815301297694357 0
    outer loop
      vertex 134.92434692382812 102.10521697998047 16.225000381469727
      vertex 162.54759216308594 107.97596740722656 27.450000762939453
      vertex 144.13209533691406 104.0621337890625 5
    endloop
  endfacet
  facet normal -0.20788622658590769 0.97815301297694357 0
    outer loop
      vertex 144.13209533691406 104.0621337890625 49.900001525878906
      vertex 162.54759216308594 107.97596740722656 49.900001525878906
      vertex 162.54759216308594 107.97596740722656 27.450000762939453
    endloop
  endfacet
  facet normal -0.20788622658590769 0.97815301297694357 0
    outer loop
      vertex 125.71659851074219 100.14830017089844 49.900001525878906
      vertex 144.13209533691406 104.0621337890625 49.900001525878906
      vertex 134.92434692382812 102.10521697998047 27.450000762939453
    endloop
  endfacet
  facet normal -0.20788622658590769 0.97815301297694357 -0
    outer loop
      vertex 162.54759216308594 107.97596740722656 27.450000762939453
      vertex 134.92434692382812 102.10521697998047 27.450000762939453
      vertex 144.13209533691406 104.0621337890625 49.900001525878906
    endloop
  endfacet
  facet normal -0.20788622658590769 0.97815301297694357 -0
    outer loop
      vertex 134.92434692382812 102.10521697998047 27.450000762939453
      vertex 162.54759216308594 107.97596740722656 27.450000762939453
      vertex 134.92434692382812 102.10521697998047 16.225000381469727
    endloop
  endfacet
  facet normal -0.20788625107983599 0.9781530077712044 -3.4291474719984028e-07
    outer loop
      vertex 107.30109405517578 96.234466552734375 11
      vertex 121.11272430419922 99.169845581054688 16.225000381469727
      vertex 125.71659851074219 100.14830017089844 5
    endloop
  endfacet
  facet normal -0.20788614418238538 0.97815303049010704 0
    outer loop
      vertex 125.71659851074219 100.14830017089844 5
      vertex 107.30109405517578 96.234466552734375 5
      vertex 107.30109405517578 96.234466552734375 11
    endloop
  endfacet
  facet normal -0.2078863751996626 0.97815298139214646 0
    outer loop
      vertex 107.30109405517578 96.234466552734375 19.98274040222168
      vertex 121.11272430419922 99.169845581054688 16.225000381469727
      vertex 107.30109405517578 96.234466552734375 11
    endloop
  endfacet
  facet normal -0.2078861441823831 0.97815303049009639 1.4854548884408253e-07
    outer loop
      vertex 107.30109405517578 96.234466552734375 49.900001525878906
      vertex 125.71659851074219 100.14830017089844 49.900001525878906
      vertex 121.11272430419922 99.169845581054688 27.450000762939453
    endloop
  endfacet
  facet normal -0.20788596810063475 0.97815306791260925 1.1080498015509128e-07
    outer loop
      vertex 121.11272430419922 99.169845581054688 27.450000762939453
      vertex 125.71659851074219 100.14830017089844 49.900001525878906
      vertex 134.92434692382812 102.10521697998047 27.450000762939453
    endloop
  endfacet
  facet normal -0.20788637519966263 0.97815298139214657 0
    outer loop
      vertex 121.11272430419922 99.169845581054688 27.450000762939453
      vertex 107.30109405517578 96.234466552734375 19.98274040222168
      vertex 107.30109405517578 96.234466552734375 49.900001525878906
    endloop
  endfacet
  facet normal -0.20788637519966258 0.97815298139214646 0
    outer loop
      vertex 107.30109405517578 96.234466552734375 19.98274040222168
      vertex 121.11272430419922 99.169845581054688 27.450000762939453
      vertex 121.11272430419922 99.169845581054688 16.225000381469727
    endloop
  endfacet
  facet normal -0.20788596810063095 0.97815306791259127 -2.2160996031017851e-07
    outer loop
      vertex 121.11272430419922 99.169845581054688 16.225000381469727
      vertex 134.92434692382812 102.10521697998047 16.225000381469727
      vertex 125.71659851074219 100.14830017089844 5
    endloop
  endfacet
  facet normal -0.65235543234271132 -0.75791318097322602 0
    outer loop
      vertex 116.80109405517578 88.057571411132812 11
      vertex 107.30109405517578 96.234466552734375 11
      vertex 107.30109405517578 96.234466552734375 5
    endloop
  endfacet
  facet normal -0.65235612309322877 -0.75791258642349169 1.9039501250453816e-06
    outer loop
      vertex 116.80109405517578 88.057571411132812 11
      vertex 107.30109405517578 96.234466552734375 5
      vertex 119.47869873046875 85.75286865234375 5
    endloop
  endfacet
  facet normal -0.65235543234263316 -0.7579131809731352 -4.8946719813879307e-07
    outer loop
      vertex 107.30109405517578 96.234466552734375 19.98274040222168
      vertex 116.80109405517578 88.057571411132812 19.98274040222168
      vertex 119.47869873046875 85.75286865234375 49.900001525878906
    endloop
  endfacet
  facet normal -0.65235612309441127 -0.75791258642486548 0
    outer loop
      vertex 107.30109405517578 96.234466552734375 19.98274040222168
      vertex 119.47869873046875 85.75286865234375 49.900001525878906
      vertex 107.30109405517578 96.234466552734375 49.900001525878906
    endloop
  endfacet
  facet normal -0.65235857383185314 -0.75791047700112346 2.1036241554282061e-17
    outer loop
      vertex 116.80109405517578 88.057571411132812 19.98274040222168
      vertex 116.80109405517578 88.057571411132812 11
      vertex 119.47869873046875 85.75286865234375 5
    endloop
  endfacet
  facet normal -0.65235857383185325 -0.75791047700112346 0
    outer loop
      vertex 119.47869873046875 85.75286865234375 49.900001525878906
      vertex 116.80109405517578 88.057571411132812 19.98274040222168
      vertex 119.47869873046875 85.75286865234375 27.450000762939453
    endloop
  endfacet
  facet normal -0.65235857383185325 -0.75791047700112346 0
    outer loop
      vertex 119.47869873046875 85.75286865234375 5
      vertex 119.47869873046875 85.75286865234375 27.450000762939453
      vertex 116.80109405517578 88.057571411132812 19.98274040222168
    endloop
  endfacet
  facet normal 0.20791445687701679 -0.97814701278567284 -0
    outer loop
      vertex 119.47869873046875 85.75286865234375 27.450000762939453
      vertex 119.47869873046875 85.75286865234375 5
      vertex 131.1822509765625 88.240570068359375 5
    endloop
  endfacet
  facet normal 0.20791445687701679 -0.97814701278567284 -0
    outer loop
      vertex 131.1822509765625 88.240570068359375 49.900001525878906
      vertex 131.1822509765625 88.240570068359375 5
      vertex 142.88580322265625 90.728271484375 24.242856979370117
    endloop
  endfacet
  facet normal 0.20791445687701679 -0.97814701278567284 0
    outer loop
      vertex 131.1822509765625 88.240570068359375 49.900001525878906
      vertex 142.88580322265625 90.728271484375 24.242856979370117
      vertex 142.88580322265625 90.728271484375 30.657142639160156
    endloop
  endfacet
  facet normal 0.20791445687701679 -0.97814701278567284 -0
    outer loop
      vertex 119.47869873046875 85.75286865234375 49.900001525878906
      vertex 119.47869873046875 85.75286865234375 27.450000762939453
      vertex 131.1822509765625 88.240570068359375 49.900001525878906
    endloop
  endfacet
  facet normal 0.20791445687701679 -0.97814701278567284 0
    outer loop
      vertex 131.1822509765625 88.240570068359375 5
      vertex 131.1822509765625 88.240570068359375 49.900001525878906
      vertex 119.47869873046875 85.75286865234375 27.450000762939453
    endloop
  endfacet
  facet normal 0.20791445687701679 -0.97814701278567284 -0
    outer loop
      vertex 142.88580322265625 90.728271484375 11.414285659790039
      vertex 131.1822509765625 88.240570068359375 5
      vertex 142.88580322265625 90.728271484375 5
    endloop
  endfacet
  facet normal 0.20791445687701679 -0.97814701278567284 0
    outer loop
      vertex 131.1822509765625 88.240570068359375 5
      vertex 142.88580322265625 90.728271484375 11.414285659790039
      vertex 142.88580322265625 90.728271484375 17.828571319580078
    endloop
  endfacet
  facet normal 0.20791445687701679 -0.97814701278567284 0
    outer loop
      vertex 131.1822509765625 88.240570068359375 5
      vertex 142.88580322265625 90.728271484375 17.828571319580078
      vertex 142.88580322265625 90.728271484375 24.242856979370117
    endloop
  endfacet
  facet normal 0.20791445687701676 -0.97814701278567284 0
    outer loop
      vertex 131.1822509765625 88.240570068359375 49.900001525878906
      vertex 142.88580322265625 90.728271484375 30.657142639160156
      vertex 142.88580322265625 90.728271484375 37.071430206298828
    endloop
  endfacet
  facet normal 0.20791445687701679 -0.97814701278567284 -0
    outer loop
      vertex 131.1822509765625 88.240570068359375 49.900001525878906
      vertex 142.88580322265625 90.728271484375 43.485713958740234
      vertex 142.88580322265625 90.728271484375 49.900001525878906
    endloop
  endfacet
  facet normal 0.20791445687701679 -0.97814701278567284 0
    outer loop
      vertex 131.1822509765625 88.240570068359375 49.900001525878906
      vertex 142.88580322265625 90.728271484375 37.071430206298828
      vertex 142.88580322265625 90.728271484375 43.485713958740234
    endloop
  endfacet
  facet normal -0.9781476685436058 -0.20791137179747679 -0
    outer loop
      vertex 142.88580322265625 90.728271484375 11.414285659790039
      vertex 142.88580322265625 90.728271484375 5
      vertex 143.216796875 89.171066284179688 5
    endloop
  endfacet
  facet normal -0.9781476685436058 -0.20791137179747679 0
    outer loop
      vertex 142.88580322265625 90.728271484375 11.414285659790039
      vertex 143.216796875 89.171066284179688 5
      vertex 143.216796875 89.171066284179688 11.414285659790039
    endloop
  endfacet
  facet normal -0.9781476685436058 -0.20791137179747679 -0
    outer loop
      vertex 142.88580322265625 90.728271484375 24.242856979370117
      vertex 142.88580322265625 90.728271484375 17.828571319580078
      vertex 143.216796875 89.171066284179688 17.828571319580078
    endloop
  endfacet
  facet normal -0.9781476685436058 -0.20791137179747679 0
    outer loop
      vertex 142.88580322265625 90.728271484375 24.242856979370117
      vertex 143.216796875 89.171066284179688 17.828571319580078
      vertex 143.216796875 89.171066284179688 24.242856979370117
    endloop
  endfacet
  facet normal -0.9781476685436058 -0.20791137179747679 -0
    outer loop
      vertex 142.88580322265625 90.728271484375 17.828571319580078
      vertex 142.88580322265625 90.728271484375 11.414285659790039
      vertex 143.216796875 89.171066284179688 11.414285659790039
    endloop
  endfacet
  facet normal -0.9781476685436058 -0.20791137179747679 0
    outer loop
      vertex 142.88580322265625 90.728271484375 17.828571319580078
      vertex 143.216796875 89.171066284179688 11.414285659790039
      vertex 143.216796875 89.171066284179688 17.828571319580078
    endloop
  endfacet
  facet normal -0.9781476685436058 -0.20791137179747679 -0
    outer loop
      vertex 142.88580322265625 90.728271484375 37.071430206298828
      vertex 142.88580322265625 90.728271484375 30.657142639160156
      vertex 143.216796875 89.171066284179688 30.657142639160156
    endloop
  endfacet
  facet normal -0.9781476685436058 -0.20791137179747679 0
    outer loop
      vertex 142.88580322265625 90.728271484375 37.071430206298828
      vertex 143.216796875 89.171066284179688 30.657142639160156
      vertex 143.216796875 89.171066284179688 37.071430206298828
    endloop
  endfacet
  facet normal -0.9781476685436058 -0.20791137179747679 -0
    outer loop
      vertex 142.88580322265625 90.728271484375 49.900001525878906
      vertex 142.88580322265625 90.728271484375 43.485713958740234
      vertex 143.216796875 89.171066284179688 43.485713958740234
    endloop
  endfacet
  facet normal -0.9781476685436058 -0.20791137179747679 0
    outer loop
      vertex 142.88580322265625 90.728271484375 49.900001525878906
      vertex 143.216796875 89.171066284179688 43.485713958740234
      vertex 143.216796875 89.171066284179688 49.900001525878906
    endloop
  endfacet
  facet normal -0.9781476685436058 -0.20791137179747679 -0
    outer loop
      vertex 142.88580322265625 90.728271484375 43.485713958740234
      vertex 142.88580322265625 90.728271484375 37.071430206298828
      vertex 143.216796875 89.171066284179688 37.071430206298828
    endloop
  endfacet
  facet normal -0.9781476685436058 -0.20791137179747676 0
    outer loop
      vertex 142.88580322265625 90.728271484375 43.485713958740234
      vertex 143.216796875 89.171066284179688 37.071430206298828
      vertex 143.216796875 89.171066284179688 43.485713958740234
    endloop
  endfacet
  facet normal -0.9781476685436058 -0.20791137179747679 -0
    outer loop
      vertex 142.88580322265625 90.728271484375 30.657142639160156
      vertex 142.88580322265625 90.728271484375 24.242856979370117
      vertex 143.216796875 89.171066284179688 24.242856979370117
    endloop
  endfacet
  facet normal -0.9781476685436058 -0.20791137179747679 0
    outer loop
      vertex 142.88580322265625 90.728271484375 30.657142639160156
      vertex 143.216796875 89.171066284179688 24.242856979370117
      vertex 143.216796875 89.171066284179688 30.657142639160156
    endloop
  endfacet
  facet normal -0.97814881213178029 0.20790599155673087 0
    outer loop
      vertex 141.13240051269531 79.364471435546875 5
      vertex 143.216796875 89.171066284179688 11.414285659790039
      vertex 143.216796875 89.171066284179688 5
    endloop
  endfacet
  facet normal -0.97814881213178029 0.20790599155673087 0
    outer loop
      vertex 141.13240051269531 79.364471435546875 19.966667175292969
      vertex 143.216796875 89.171066284179688 17.828571319580078
      vertex 143.216796875 89.171066284179688 11.414285659790039
    endloop
  endfacet
  facet normal -0.9781488121317804 0.2079059915567309 0
    outer loop
      vertex 141.13240051269531 79.364471435546875 19.966667175292969
      vertex 143.216796875 89.171066284179688 30.657142639160156
      vertex 143.216796875 89.171066284179688 24.242856979370117
    endloop
  endfacet
  facet normal -0.97814881213178029 0.20790599155673087 0
    outer loop
      vertex 141.13240051269531 79.364471435546875 34.933334350585938
      vertex 143.216796875 89.171066284179688 37.071430206298828
      vertex 143.216796875 89.171066284179688 30.657142639160156
    endloop
  endfacet
  facet normal -0.97814881213178029 0.20790599155673087 0
    outer loop
      vertex 143.216796875 89.171066284179688 24.242856979370117
      vertex 143.216796875 89.171066284179688 17.828571319580078
      vertex 141.13240051269531 79.364471435546875 19.966667175292969
    endloop
  endfacet
  facet normal -0.97814881213178029 0.20790599155673087 0
    outer loop
      vertex 141.13240051269531 79.364471435546875 19.966667175292969
      vertex 141.13240051269531 79.364471435546875 34.933334350585938
      vertex 143.216796875 89.171066284179688 30.657142639160156
    endloop
  endfacet
  facet normal -0.97814881213178029 0.20790599155673087 -0
    outer loop
      vertex 143.216796875 89.171066284179688 37.071430206298828
      vertex 141.13240051269531 79.364471435546875 34.933334350585938
      vertex 143.216796875 89.171066284179688 43.485713958740234
    endloop
  endfacet
  facet normal -0.97814881213178029 0.20790599155673087 0
    outer loop
      vertex 143.216796875 89.171066284179688 49.900001525878906
      vertex 143.216796875 89.171066284179688 43.485713958740234
      vertex 141.13240051269531 79.364471435546875 49.900001525878906
    endloop
  endfacet
  facet normal -0.97814881213178029 0.20790599155673087 0
    outer loop
      vertex 141.13240051269531 79.364471435546875 34.933334350585938
      vertex 141.13240051269531 79.364471435546875 49.900001525878906
      vertex 143.216796875 89.171066284179688 43.485713958740234
    endloop
  endfacet
  facet normal -0.97814881213178029 0.20790599155673087 0
    outer loop
      vertex 141.13240051269531 79.364471435546875 5
      vertex 141.13240051269531 79.364471435546875 19.966667175292969
      vertex 143.216796875 89.171066284179688 11.414285659790039
    endloop
  endfacet
  facet normal -0.25777458446592716 -0.96620508361497381 -0
    outer loop
      vertex 141.13240051269531 79.364471435546875 19.966667175292969
      vertex 141.13240051269531 79.364471435546875 5
      vertex 147.73159790039062 77.603866577148438 5
    endloop
  endfacet
  facet normal -0.25777458446592716 -0.96620508361497381 0
    outer loop
      vertex 141.13240051269531 79.364471435546875 19.966667175292969
      vertex 147.73159790039062 77.603866577148438 5
      vertex 147.73159790039062 77.603866577148438 19.966667175292969
    endloop
  endfacet
  facet normal -0.25777458446592716 -0.96620508361497381 -0
    outer loop
      vertex 141.13240051269531 79.364471435546875 49.900001525878906
      vertex 141.13240051269531 79.364471435546875 34.933334350585938
      vertex 147.73159790039062 77.603866577148438 34.933334350585938
    endloop
  endfacet
  facet normal -0.25777458446592716 -0.96620508361497381 0
    outer loop
      vertex 141.13240051269531 79.364471435546875 49.900001525878906
      vertex 147.73159790039062 77.603866577148438 34.933334350585938
      vertex 147.73159790039062 77.603866577148438 49.900001525878906
    endloop
  endfacet
  facet normal -0.25777458446592716 -0.96620508361497381 -0
    outer loop
      vertex 141.13240051269531 79.364471435546875 34.933334350585938
      vertex 141.13240051269531 79.364471435546875 19.966667175292969
      vertex 147.73159790039062 77.603866577148438 19.966667175292969
    endloop
  endfacet
  facet normal -0.25777458446592716 -0.96620508361497381 0
    outer loop
      vertex 141.13240051269531 79.364471435546875 34.933334350585938
      vertex 147.73159790039062 77.603866577148438 19.966667175292969
      vertex 147.73159790039062 77.603866577148438 34.933334350585938
    endloop
  endfacet
  facet normal -0.97489605442224792 0.22266046589355182 -0
    outer loop
      vertex 147.73159790039062 77.603866577148438 19.966667175292969
      vertex 147.73159790039062 77.603866577148438 5
      vertex 145.88859558105469 69.534469604492188 5
    endloop
  endfacet
  facet normal -0.9748960544222478 0.22266046589355179 0
    outer loop
      vertex 147.73159790039062 77.603866577148438 19.966667175292969
      vertex 145.88859558105469 69.534469604492188 5
      vertex 145.88859558105469 69.534469604492188 19.966667175292969
    endloop
  endfacet
  facet normal -0.97489605442224792 0.22266046589355182 -0
    outer loop
      vertex 147.73159790039062 77.603866577148438 49.900001525878906
      vertex 147.73159790039062 77.603866577148438 34.933334350585938
      vertex 145.88859558105469 69.534469604492188 34.933334350585938
    endloop
  endfacet
  facet normal -0.9748960544222478 0.22266046589355179 0
    outer loop
      vertex 147.73159790039062 77.603866577148438 49.900001525878906
      vertex 145.88859558105469 69.534469604492188 34.933334350585938
      vertex 145.88859558105469 69.534469604492188 49.900001525878906
    endloop
  endfacet
  facet normal -0.97489605442224792 0.22266046589355182 -0
    outer loop
      vertex 147.73159790039062 77.603866577148438 34.933334350585938
      vertex 147.73159790039062 77.603866577148438 19.966667175292969
      vertex 145.88859558105469 69.534469604492188 19.966667175292969
    endloop
  endfacet
  facet normal -0.9748960544222478 0.22266046589355179 0
    outer loop
      vertex 147.73159790039062 77.603866577148438 34.933334350585938
      vertex 145.88859558105469 69.534469604492188 19.966667175292969
      vertex 145.88859558105469 69.534469604492188 34.933334350585938
    endloop
  endfacet
  facet normal 0 1 -0
    outer loop
      vertex 145.88859558105469 69.534469604492188 19.966667175292969
      vertex 145.88859558105469 69.534469604492188 5
      vertex 124.24755859375 69.534469604492188 5
    endloop
  endfacet
  facet normal 0 1 0
    outer loop
      vertex 145.88859558105469 69.534469604492188 19.966667175292969
      vertex 80.965492248535156 69.534469604492188 27.450000762939453
      vertex 145.88859558105469 69.534469604492188 34.933334350585938
    endloop
  endfacet
  facet normal 0 1 -0
    outer loop
      vertex 145.88859558105469 69.534469604492188 34.933334350585938
      vertex 124.24755859375 69.534469604492188 49.900001525878906
      vertex 145.88859558105469 69.534469604492188 49.900001525878906
    endloop
  endfacet
  facet normal 0 1 0
    outer loop
      vertex 124.24755859375 69.534469604492188 5
      vertex 80.965492248535156 69.534469604492188 27.450000762939453
      vertex 145.88859558105469 69.534469604492188 19.966667175292969
    endloop
  endfacet
  facet normal -0 1 0
    outer loop
      vertex 80.965492248535156 69.534469604492188 27.450000762939453
      vertex 102.60652923583984 69.534469604492188 5
      vertex 80.965492248535156 69.534469604492188 5
    endloop
  endfacet
  facet normal 0 1 0
    outer loop
      vertex 145.88859558105469 69.534469604492188 34.933334350585938
      vertex 80.965492248535156 69.534469604492188 27.450000762939453
      vertex 124.24755859375 69.534469604492188 49.900001525878906
    endloop
  endfacet
  facet normal 0 1 -0
    outer loop
      vertex 80.965492248535156 69.534469604492188 27.450000762939453
      vertex 102.60652923583984 69.534469604492188 49.900001525878906
      vertex 124.24755859375 69.534469604492188 49.900001525878906
    endloop
  endfacet
  facet normal 0 1 -0
    outer loop
      vertex 80.965492248535156 69.534469604492188 27.450000762939453
      vertex 80.965492248535156 69.534469604492188 49.900001525878906
      vertex 102.60652923583984 69.534469604492188 49.900001525878906
    endloop
  endfacet
  facet normal 0 1 0
    outer loop
      vertex 102.60652923583984 69.534469604492188 5
      vertex 80.965492248535156 69.534469604492188 27.450000762939453
      vertex 124.24755859375 69.534469604492188 5
    endloop
  endfacet
  facet normal 0 0 -1
    outer loop
      vertex 144.86116027832031 94.270469665527344 5
      vertex 152.42752075195312 94.270469665527344 5
      vertex 152.42752075195312 90.844093322753906 5
    endloop
  endfacet
  facet normal 0 0 -1
    outer loop
      vertex 144.86116027832031 94.270469665527344 5
      vertex 152.42752075195312 90.844093322753906 5
      vertex 144.86116027832031 90.844093322753906 5
    endloop
  endfacet
  facet normal 0 0 -1
    outer loop
      vertex 152.42752075195312 94.270469665527344 5
      vertex 159.99388122558594 94.270469665527344 5
      vertex 159.99388122558594 90.844093322753906 5
    endloop
  endfacet
  facet normal 0 0 -1
    outer loop
      vertex 152.42752075195312 94.270469665527344 5
      vertex 159.99388122558594 90.844093322753906 5
      vertex 152.42752075195312 90.844093322753906 5
    endloop
  endfacet
  facet normal 0 0 -1
    outer loop
      vertex 152.42752075195312 90.844093322753906 5
      vertex 159.99388122558594 90.844093322753906 5
      vertex 159.99388122558594 87.417716979980469 5
    endloop
  endfacet
  facet normal 0 0 -1
    outer loop
      vertex 152.42752075195312 90.844093322753906 5
      vertex 159.99388122558594 87.417716979980469 5
      vertex 152.42752075195312 87.417716979980469 5
    endloop
  endfacet
  facet normal 0 -0 -1
    outer loop
      vertex 144.86116027832031 89.130905151367188 5
      vertex 144.86116027832031 90.844093322753906 5
      vertex 152.42752075195312 90.844093322753906 5
    endloop
  endfacet
  facet normal -0 -0 -1
    outer loop
      vertex 152.42752075195312 87.417716979980469 5
      vertex 144.86116027832031 87.417716979980469 5
      vertex 144.86116027832031 89.130905151367188 5
    endloop
  endfacet
  facet normal 0 0 -1
    outer loop
      vertex 152.42752075195312 90.844093322753906 5
      vertex 152.42752075195312 87.417716979980469 5
      vertex 144.86116027832031 89.130905151367188 5
    endloop
  endfacet
  facet normal 0 0 -1
    outer loop
      vertex 144.86116027832031 87.417716979980469 5
      vertex 152.42752075195312 87.417716979980469 5
      vertex 159.99388122558594 80.564964294433594 5
    endloop
  endfacet
  facet normal 0 0 -1
    outer loop
      vertex 152.42752075195312 87.417716979980469 5
      vertex 159.99388122558594 87.417716979980469 5
      vertex 159.99388122558594 80.564964294433594 5
    endloop
  endfacet
  facet normal -0 -0 -1
    outer loop
      vertex 152.42752075195312 94.270469665527344 5
      vertex 144.86116027832031 94.270469665527344 5
      vertex 144.86116027832031 101.12321472167969 5
    endloop
  endfacet
  facet normal -0 0 -1
    outer loop
      vertex 159.99388122558594 101.12321472167969 5
      vertex 159.99388122558594 94.270469665527344 5
      vertex 152.42752075195312 94.270469665527344 5
    endloop
  endfacet
  facet normal 0 0 -1
    outer loop
      vertex 144.86116027832031 101.12321472167969 5
      vertex 159.99388122558594 101.12321472167969 5
      vertex 152.42752075195312 94.270469665527344 5
    endloop
  endfacet
  facet normal 0 0 -1
    outer loop
      vertex 129.72843933105469 94.270469665527344 5
      vertex 137.2947998046875 94.270469665527344 5
      vertex 137.2947998046875 90.844093322753906 5
    endloop
  endfacet
  facet normal 0 0 -1
    outer loop
      vertex 129.72843933105469 94.270469665527344 5
      vertex 137.2947998046875 90.844093322753906 5
      vertex 129.72843933105469 90.844093322753906 5
    endloop
  endfacet
  facet normal 0 -0 -1
    outer loop
      vertex 137.2947998046875 90.844093322753906 5
      vertex 137.2947998046875 94.270469665527344 5
      vertex 144.86116027832031 94.270469665527344 5
    endloop
  endfacet
  facet normal 0 0 -1
    outer loop
      vertex 145.88859558105469 69.534469604492188 5
      vertex 175.12660217285156 74.275360107421875 5
      vertex 175.12660217285156 53.153957366943359 5
    endloop
  endfacet
  facet normal 0 0 -1
    outer loop
      vertex 159.99388122558594 87.417716979980469 5
      vertex 175.12660217285156 74.275360107421875 5
      vertex 159.99388122558594 80.564964294433594 5
    endloop
  endfacet
  facet normal -0 -0 -1
    outer loop
      vertex 175.12660217285156 74.275360107421875 5
      vertex 147.73159790039062 77.603866577148438 5
      vertex 159.99388122558594 80.564964294433594 5
    endloop
  endfacet
  facet normal 0 -0 -1
    outer loop
      vertex 175.12660217285156 95.396766662597656 5
      vertex 175.12660217285156 74.275360107421875 5
      vertex 159.99388122558594 87.417716979980469 5
    endloop
  endfacet
  facet normal 0 -0 -1
    outer loop
      vertex 175.12660217285156 53.153957366943359 5
      vertex 156.07499694824219 53.153957366943359 5
      vertex 145.88859558105469 69.534469604492188 5
    endloop
  endfacet
  facet normal 0 -0 -1
    outer loop
      vertex 159.99388122558594 80.564964294433594 5
      vertex 147.73159790039062 77.603866577148438 5
      vertex 141.13240051269531 79.364471435546875 5
    endloop
  endfacet
  facet normal 0 -0 -1
    outer loop
      vertex 175.12660217285156 74.275360107421875 5
      vertex 145.88859558105469 69.534469604492188 5
      vertex 147.73159790039062 77.603866577148438 5
    endloop
  endfacet
  facet normal 0 0 -1
    outer loop
      vertex 144.86116027832031 89.130905151367188 5
      vertex 144.86116027832031 87.417716979980469 5
      vertex 143.216796875 89.171066284179688 5
    endloop
  endfacet
  facet normal -0 0 -1
    outer loop
      vertex 141.13240051269531 79.364471435546875 5
      vertex 143.216796875 89.171066284179688 5
      vertex 144.86116027832031 87.417716979980469 5
    endloop
  endfacet
  facet normal 0 -0 -1
    outer loop
      vertex 144.86116027832031 90.844093322753906 5
      vertex 144.86116027832031 89.130905151367188 5
      vertex 143.216796875 89.171066284179688 5
    endloop
  endfacet
  facet normal 0 -0 -1
    outer loop
      vertex 159.99388122558594 80.564964294433594 5
      vertex 141.13240051269531 79.364471435546875 5
      vertex 144.86116027832031 87.417716979980469 5
    endloop
  endfacet
  facet normal -0 0 -1
    outer loop
      vertex 145.88859558105469 69.534469604492188 5
      vertex 156.07499694824219 53.153957366943359 5
      vertex 137.02339172363281 53.153957366943359 5
    endloop
  endfacet
  facet normal 0 -0 -1
    outer loop
      vertex 175.12660217285156 95.396766662597656 5
      vertex 159.99388122558594 90.844093322753906 5
      vertex 159.99388122558594 94.270469665527344 5
    endloop
  endfacet
  facet normal 0 0 -1
    outer loop
      vertex 162.54759216308594 107.97596740722656 5
      vertex 175.12660217285156 95.396766662597656 5
      vertex 159.99388122558594 101.12321472167969 5
    endloop
  endfacet
  facet normal 0 -0 -1
    outer loop
      vertex 159.99388122558594 94.270469665527344 5
      vertex 159.99388122558594 101.12321472167969 5
      vertex 175.12660217285156 95.396766662597656 5
    endloop
  endfacet
  facet normal 0 0 -1
    outer loop
      vertex 144.13209533691406 104.0621337890625 5
      vertex 162.54759216308594 107.97596740722656 5
      vertex 159.99388122558594 101.12321472167969 5
    endloop
  endfacet
  facet normal 0 -0 -1
    outer loop
      vertex 159.99388122558594 87.417716979980469 5
      vertex 159.99388122558594 90.844093322753906 5
      vertex 175.12660217285156 95.396766662597656 5
    endloop
  endfacet
  facet normal 0 0 -1
    outer loop
      vertex 144.86116027832031 94.270469665527344 5
      vertex 144.86116027832031 90.844093322753906 5
      vertex 142.88580322265625 90.728271484375 5
    endloop
  endfacet
  facet normal -0 0 -1
    outer loop
      vertex 144.86116027832031 101.12321472167969 5
      vertex 144.86116027832031 94.270469665527344 5
      vertex 137.2947998046875 94.270469665527344 5
    endloop
  endfacet
  facet normal -0 0 -1
    outer loop
      vertex 125.71659851074219 100.14830017089844 5
      vertex 144.13209533691406 104.0621337890625 5
      vertex 144.86116027832031 101.12321472167969 5
    endloop
  endfacet
  facet normal 0 -0 -1
    outer loop
      vertex 159.99388122558594 101.12321472167969 5
      vertex 144.86116027832031 101.12321472167969 5
      vertex 144.13209533691406 104.0621337890625 5
    endloop
  endfacet
  facet normal 0 0 -1
    outer loop
      vertex 137.2947998046875 90.844093322753906 5
      vertex 144.86116027832031 94.270469665527344 5
      vertex 142.88580322265625 90.728271484375 5
    endloop
  endfacet
  facet normal 0 -0 -1
    outer loop
      vertex 144.86116027832031 90.844093322753906 5
      vertex 143.216796875 89.171066284179688 5
      vertex 142.88580322265625 90.728271484375 5
    endloop
  endfacet
  facet normal -0 -0 -1
    outer loop
      vertex 137.02339172363281 53.153957366943359 5
      vertex 117.97179412841797 53.153957366943359 5
      vertex 124.24755859375 69.534469604492188 5
    endloop
  endfacet
  facet normal 0 -0 -1
    outer loop
      vertex 137.02339172363281 53.153957366943359 5
      vertex 124.24755859375 69.534469604492188 5
      vertex 145.88859558105469 69.534469604492188 5
    endloop
  endfacet
  facet normal 0 0 -1
    outer loop
      vertex 102.60652923583984 69.534469604492188 5
      vertex 124.24755859375 69.534469604492188 5
      vertex 117.97179412841797 53.153957366943359 5
    endloop
  endfacet
  facet normal -0 0 -1
    outer loop
      vertex 102.60652923583984 69.534469604492188 5
      vertex 117.97179412841797 53.153957366943359 5
      vertex 98.920196533203125 53.153957366943359 5
    endloop
  endfacet
  facet normal -0 -0 -1
    outer loop
      vertex 98.920196533203125 53.153957366943359 5
      vertex 79.868598937988281 53.153957366943359 5
      vertex 80.965492248535156 69.534469604492188 5
    endloop
  endfacet
  facet normal 0 -0 -1
    outer loop
      vertex 98.920196533203125 53.153957366943359 5
      vertex 80.965492248535156 69.534469604492188 5
      vertex 102.60652923583984 69.534469604492188 5
    endloop
  endfacet
  facet normal 0 0 -1
    outer loop
      vertex 57.440914154052734 69.037117004394531 5
      vertex 80.965492248535156 69.534469604492188 5
      vertex 60.816997528076172 53.153957366943359 5
    endloop
  endfacet
  facet normal 0 -0 -1
    outer loop
      vertex 79.868598937988281 53.153957366943359 5
      vertex 60.816997528076172 53.153957366943359 5
      vertex 80.965492248535156 69.534469604492188 5
    endloop
  endfacet
  facet normal 0 -0 -1
    outer loop
      vertex 57.440914154052734 69.037117004394531 5
      vertex 54.064834594726562 84.920265197753906 5
      vertex 80.965492248535156 69.534469604492188 5
    endloop
  endfacet
  facet normal 0 0 -1
    outer loop
      vertex 129.72843933105469 90.844093322753906 5
      vertex 137.2947998046875 90.844093322753906 5
      vertex 131.1822509765625 88.240570068359375 5
    endloop
  endfacet
  facet normal -0 0 -1
    outer loop
      vertex 137.2947998046875 90.844093322753906 5
      vertex 142.88580322265625 90.728271484375 5
      vertex 131.1822509765625 88.240570068359375 5
    endloop
  endfacet
  facet normal 0 0 -1
    outer loop
      vertex 107.30109405517578 96.234466552734375 5
      vertex 129.72843933105469 94.270469665527344 5
      vertex 129.72843933105469 90.844093322753906 5
    endloop
  endfacet
  facet normal 0 0 -1
    outer loop
      vertex 125.71659851074219 100.14830017089844 5
      vertex 137.2947998046875 94.270469665527344 5
      vertex 129.72843933105469 94.270469665527344 5
    endloop
  endfacet
  facet normal -0 0 -1
    outer loop
      vertex 129.72843933105469 90.844093322753906 5
      vertex 131.1822509765625 88.240570068359375 5
      vertex 119.47869873046875 85.75286865234375 5
    endloop
  endfacet
  facet normal -0 -0 -1
    outer loop
      vertex 80.965492248535156 69.534469604492188 5
      vertex 65.369316101074219 87.322822570800781 5
      vertex 76.673797607421875 89.725372314453125 5
    endloop
  endfacet
  facet normal 0 0 -1
    outer loop
      vertex 54.064834594726562 84.920265197753906 5
      vertex 65.369316101074219 87.322822570800781 5
      vertex 80.965492248535156 69.534469604492188 5
    endloop
  endfacet
  facet normal 0 0 -1
    outer loop
      vertex 107.30109405517578 96.234466552734375 5
      vertex 125.71659851074219 100.14830017089844 5
      vertex 129.72843933105469 94.270469665527344 5
    endloop
  endfacet
  facet normal 0 -0 -1
    outer loop
      vertex 119.47869873046875 85.75286865234375 5
      vertex 107.30109405517578 96.234466552734375 5
      vertex 129.72843933105469 90.844093322753906 5
    endloop
  endfacet
  facet normal 0 0 -1
    outer loop
      vertex 144.86116027832031 101.12321472167969 5
      vertex 137.2947998046875 94.270469665527344 5
      vertex 125.71659851074219 100.14830017089844 5
    endloop
  endfacet
  facet normal 0 -0 -1
    outer loop
      vertex 92.692794799804688 87.282066345214844 11
      vertex 85.277946472167969 85.706222534179688 11
      vertex 91.987442016601562 92.97991943359375 11
    endloop
  endfacet
  facet normal 0 0 -1
    outer loop
      vertex 76.673797607421875 89.725372314453125 11
      vertex 91.987442016601562 92.97991943359375 11
      vertex 85.277946472167969 85.706222534179688 11
    endloop
  endfacet
  facet normal 0 0 -1
    outer loop
      vertex 76.673797607421875 89.725372314453125 11
      vertex 85.277946472167969 85.706222534179688 11
      vertex 77.86309814453125 84.13037109375 11
    endloop
  endfacet
  facet normal -0 0 -1
    outer loop
      vertex 107.30109405517578 96.234466552734375 11
      vertex 116.80109405517578 88.057571411132812 11
      vertex 92.692794799804688 87.282066345214844 11
    endloop
  endfacet
  facet normal 0 -0 -1
    outer loop
      vertex 106.58939361572266 85.887016296386719 11
      vertex 96.377693176269531 83.716468811035156 11
      vertex 92.692794799804688 87.282066345214844 11
    endloop
  endfacet
  facet normal 0 -0 -1
    outer loop
      vertex 116.80109405517578 88.057571411132812 11
      vertex 106.58939361572266 85.887016296386719 11
      vertex 92.692794799804688 87.282066345214844 11
    endloop
  endfacet
  facet normal 0 -0 -1
    outer loop
      vertex 107.30109405517578 96.234466552734375 11
      vertex 92.692794799804688 87.282066345214844 11
      vertex 91.987442016601562 92.97991943359375 11
    endloop
  endfacet
  facet normal 0 -0 1
    outer loop
      vertex 92.692794799804688 87.282066345214844 19.98274040222168
      vertex 91.987442016601562 92.97991943359375 19.98274040222168
      vertex 85.277946472167969 85.706222534179688 19.98274040222168
    endloop
  endfacet
  facet normal 0 0 1
    outer loop
      vertex 76.673797607421875 89.725372314453125 19.98274040222168
      vertex 85.277946472167969 85.706222534179688 19.98274040222168
      vertex 91.987442016601562 92.97991943359375 19.98274040222168
    endloop
  endfacet
  facet normal 0 0 1
    outer loop
      vertex 76.673797607421875 89.725372314453125 19.98274040222168
      vertex 77.86309814453125 84.13037109375 19.98274040222168
      vertex 85.277946472167969 85.706222534179688 19.98274040222168
    endloop
  endfacet
  facet normal 0 -0 1
    outer loop
      vertex 107.30109405517578 96.234466552734375 19.98274040222168
      vertex 92.692794799804688 87.282066345214844 19.98274040222168
      vertex 116.80109405517578 88.057571411132812 19.98274040222168
    endloop
  endfacet
  facet normal 0 -0 1
    outer loop
      vertex 106.58939361572266 85.887016296386719 19.98274040222168
      vertex 92.692794799804688 87.282066345214844 19.98274040222168
      vertex 96.377693176269531 83.716468811035156 19.98274040222168
    endloop
  endfacet
  facet normal 0 -0 1
    outer loop
      vertex 116.80109405517578 88.057571411132812 19.98274040222168
      vertex 92.692794799804688 87.282066345214844 19.98274040222168
      vertex 106.58939361572266 85.887016296386719 19.98274040222168
    endloop
  endfacet
  facet normal 0 -0 1
    outer loop
      vertex 107.30109405517578 96.234466552734375 19.98274040222168
      vertex 91.987442016601562 92.97991943359375 19.98274040222168
      vertex 92.692794799804688 87.282066345214844 19.98274040222168
    endloop
  endfacet
  facet normal -0.20788306007490523 0.97815368594812002 -0
    outer loop
      vertex 76.673797607421875 89.725372314453125 11
      vertex 76.673797607421875 89.725372314453125 19.98274040222168
      vertex 91.987442016601562 92.97991943359375 19.98274040222168
    endloop
  endfacet
  facet normal -0.20788306007490523 0.97815368594812002 0
    outer loop
      vertex 76.673797607421875 89.725372314453125 11
      vertex 91.987442016601562 92.97991943359375 19.98274040222168
      vertex 91.987442016601562 92.97991943359375 11
    endloop
  endfacet
  facet normal -0.20788296098153358 0.97815370700802973 0
    outer loop
      vertex 107.30109405517578 96.234466552734375 19.98274040222168
      vertex 107.30109405517578 96.234466552734375 11
      vertex 91.987442016601562 92.97991943359375 11
    endloop
  endfacet
  facet normal -0.20788296098153358 0.97815370700802973 -0
    outer loop
      vertex 107.30109405517578 96.234466552734375 19.98274040222168
      vertex 91.987442016601562 92.97991943359375 11
      vertex 91.987442016601562 92.97991943359375 19.98274040222168
    endloop
  endfacet
  facet normal 0.20788255320758844 -0.97815379367045041 -0
    outer loop
      vertex 85.277946472167969 85.706222534179688 19.98274040222168
      vertex 92.692794799804688 87.282066345214844 15.49137020111084
      vertex 92.692794799804688 87.282066345214844 19.98274040222168
    endloop
  endfacet
  facet normal 0.20788255320758844 -0.97815379367045041 -0
    outer loop
      vertex 85.277946472167969 85.706222534179688 11
      vertex 92.692794799804688 87.282066345214844 11
      vertex 92.692794799804688 87.282066345214844 15.49137020111084
    endloop
  endfacet
  facet normal 0.20788351616947082 -0.97815358901606941 -0
    outer loop
      vertex 77.86309814453125 84.13037109375 19.98274040222168
      vertex 77.86309814453125 84.13037109375 11
      vertex 85.277946472167969 85.706222534179688 11
    endloop
  endfacet
  facet normal 0.20788351616947082 -0.97815358901606941 0
    outer loop
      vertex 77.86309814453125 84.13037109375 19.98274040222168
      vertex 85.277946472167969 85.706222534179688 11
      vertex 85.277946472167969 85.706222534179688 19.98274040222168
    endloop
  endfacet
  facet normal 0.20788255320758844 -0.97815379367045041 -0
    outer loop
      vertex 92.692794799804688 87.282066345214844 15.49137020111084
      vertex 85.277946472167969 85.706222534179688 19.98274040222168
      vertex 85.277946472167969 85.706222534179688 11
    endloop
  endfacet
  facet normal -0.695377804135072 -0.71864435537773841 0
    outer loop
      vertex 96.377693176269531 83.716468811035156 15.49137020111084
      vertex 96.377693176269531 83.716468811035156 19.98274040222168
      vertex 92.692794799804688 87.282066345214844 19.98274040222168
    endloop
  endfacet
  facet normal -0.695377804135072 -0.71864435537773841 0
    outer loop
      vertex 96.377693176269531 83.716468811035156 15.49137020111084
      vertex 92.692794799804688 87.282066345214844 19.98274040222168
      vertex 92.692794799804688 87.282066345214844 15.49137020111084
    endloop
  endfacet
  facet normal -0.695377804135072 -0.71864435537773841 0
    outer loop
      vertex 96.377693176269531 83.716468811035156 11
      vertex 96.377693176269531 83.716468811035156 15.49137020111084
      vertex 92.692794799804688 87.282066345214844 15.49137020111084
    endloop
  endfacet
  facet normal -0.695377804135072 -0.71864435537773841 0
    outer loop
      vertex 96.377693176269531 83.716468811035156 11
      vertex 92.692794799804688 87.282066345214844 15.49137020111084
      vertex 92.692794799804688 87.282066345214844 11
    endloop
  endfacet
  facet normal 0.20791088254557283 -0.97814777253701346 -0
    outer loop
      vertex 116.80109405517578 88.057571411132812 11
      vertex 116.80109405517578 88.057571411132812 19.98274040222168
      vertex 106.58939361572266 85.887016296386719 19.98274040222168
    endloop
  endfacet
  facet normal 0.20791088254557283 -0.97814777253701346 0
    outer loop
      vertex 116.80109405517578 88.057571411132812 11
      vertex 106.58939361572266 85.887016296386719 19.98274040222168
      vertex 106.58939361572266 85.887016296386719 11
    endloop
  endfacet
  facet normal 0.20791018333897576 -0.97814792115709848 0
    outer loop
      vertex 106.58939361572266 85.887016296386719 19.98274040222168
      vertex 96.377693176269531 83.716468811035156 15.49137020111084
      vertex 106.58939361572266 85.887016296386719 11
    endloop
  endfacet
  facet normal 0.20791018333897576 -0.97814792115709848 0
    outer loop
      vertex 96.377693176269531 83.716468811035156 15.49137020111084
      vertex 96.377693176269531 83.716468811035156 11
      vertex 106.58939361572266 85.887016296386719 11
    endloop
  endfacet
  facet normal 0.20791018333897576 -0.97814792115709848 0
    outer loop
      vertex 96.377693176269531 83.716468811035156 19.98274040222168
      vertex 96.377693176269531 83.716468811035156 15.49137020111084
      vertex 106.58939361572266 85.887016296386719 19.98274040222168
    endloop
  endfacet
  facet normal -0.20788751872237185 0.97815273835912531 0
    outer loop
      vertex 65.369316101074219 87.322822570800781 5
      vertex 76.673797607421875 89.725372314453125 11
      vertex 76.673797607421875 89.725372314453125 5
    endloop
  endfacet
  facet normal -0.20788751872237185 0.97815273835912531 0
    outer loop
      vertex 65.369316101074219 87.322822570800781 49.900001525878906
      vertex 76.673797607421875 89.725372314453125 49.900001525878906
      vertex 76.673797607421875 89.725372314453125 19.98274040222168
    endloop
  endfacet
  facet normal -0.20788751872237182 0.97815273835912531 0
    outer loop
      vertex 76.673797607421875 89.725372314453125 19.98274040222168
      vertex 76.673797607421875 89.725372314453125 11
      vertex 65.369316101074219 87.322822570800781 5
    endloop
  endfacet
  facet normal -0.20788815034744548 0.97815260411917226 0
    outer loop
      vertex 54.064834594726562 84.920265197753906 27.450000762939453
      vertex 65.369316101074219 87.322822570800781 5
      vertex 54.064834594726562 84.920265197753906 5
    endloop
  endfacet
  facet normal -0.20788815034744548 0.97815260411917226 0
    outer loop
      vertex 54.064834594726562 84.920265197753906 49.900001525878906
      vertex 65.369316101074219 87.322822570800781 49.900001525878906
      vertex 54.064834594726562 84.920265197753906 27.450000762939453
    endloop
  endfacet
  facet normal -0.20788815034744548 0.97815260411917226 0
    outer loop
      vertex 65.369316101074219 87.322822570800781 5
      vertex 54.064834594726562 84.920265197753906 27.450000762939453
      vertex 65.369316101074219 87.322822570800781 49.900001525878906
    endloop
  endfacet
  facet normal -0.20788751872237185 0.97815273835912531 -0
    outer loop
      vertex 76.673797607421875 89.725372314453125 19.98274040222168
      vertex 65.369316101074219 87.322822570800781 5
      vertex 65.369316101074219 87.322822570800781 49.900001525878906
    endloop
  endfacet
endsolid OBJECT
