solid OBJECT
  facet normal 0 0 1
    outer loop
      vertex 94.438247680664062 72.871971130371094 54.252998352050781
      vertex 94.438247680664062 76.209465026855469 54.252998352050781
      vertex 85.556022644042969 76.209465026855469 54.252998352050781
    endloop
  endfacet
  facet normal 0 -0 1
    outer loop
      vertex 94.438247680664062 72.871971130371094 54.252998352050781
      vertex 85.556022644042969 76.209465026855469 54.252998352050781
      vertex 85.556022644042969 72.871971130371094 54.252998352050781
    endloop
  endfacet
  facet normal 0 -0 1
    outer loop
      vertex 112.20269775390625 86.221969604492188 54.252998352050781
      vertex 94.438247680664062 82.884468078613281 54.252998352050781
      vertex 112.20269775390625 82.884468078613281 54.252998352050781
    endloop
  endfacet
  facet normal 0 0 1
    outer loop
      vertex 94.438247680664062 89.559471130371094 54.252998352050781
      vertex 112.20269775390625 86.221969604492188 54.252998352050781
      vertex 112.20269775390625 89.559471130371094 54.252998352050781
    endloop
  endfacet
  facet normal -0 0 1
    outer loop
      vertex 94.438247680664062 82.884468078613281 54.252998352050781
      vertex 112.20269775390625 86.221969604492188 54.252998352050781
      vertex 94.438247680664062 89.559471130371094 54.252998352050781
    endloop
  endfacet
  facet normal 0 -0 1
    outer loop
      vertex 103.32047271728516 76.209465026855469 54.252998352050781
      vertex 94.438247680664062 82.884468078613281 54.252998352050781
      vertex 94.438247680664062 76.209465026855469 54.252998352050781
    endloop
  endfacet
  facet normal 0 -0 1
    outer loop
      vertex 112.20269775390625 82.884468078613281 54.252998352050781
      vertex 103.32047271728516 76.209465026855469 54.252998352050781
      vertex 112.20269775390625 76.209465026855469 54.252998352050781
    endloop
  endfacet
  facet normal 0 0 1
    outer loop
      vertex 94.438247680664062 82.884468078613281 54.252998352050781
      vertex 103.32047271728516 76.209465026855469 54.252998352050781
      vertex 112.20269775390625 82.884468078613281 54.252998352050781
    endloop
  endfacet
  facet normal 0 0 1
    outer loop
      vertex 103.32047271728516 72.871971130371094 54.252998352050781
      vertex 103.32047271728516 76.209465026855469 54.252998352050781
      vertex 94.438247680664062 76.209465026855469 54.252998352050781
    endloop
  endfacet
  facet normal 0 -0 1
    outer loop
      vertex 103.32047271728516 72.871971130371094 54.252998352050781
      vertex 94.438247680664062 76.209465026855469 54.252998352050781
      vertex 94.438247680664062 72.871971130371094 54.252998352050781
    endloop
  endfacet
  facet normal 0 0 1
    outer loop
      vertex 112.20269775390625 72.871971130371094 54.252998352050781
      vertex 112.20269775390625 76.209465026855469 54.252998352050781
      vertex 103.32047271728516 76.209465026855469 54.252998352050781
    endloop
  endfacet
  facet normal 0 -0 1
    outer loop
      vertex 112.20269775390625 72.871971130371094 54.252998352050781
      vertex 103.32047271728516 76.209465026855469 54.252998352050781
      vertex 103.32047271728516 72.871971130371094 54.252998352050781
    endloop
  endfacet
  facet normal 0 0 1
    outer loop
      vertex 121.08492279052734 82.884468078613281 54.252998352050781
      vertex 129.96714782714844 76.209465026855469 54.252998352050781
      vertex 129.96714782714844 82.884468078613281 54.252998352050781
    endloop
  endfacet
  facet normal -0 0 1
    outer loop
      vertex 112.20269775390625 76.209465026855469 54.252998352050781
      vertex 121.08492279052734 82.884468078613281 54.252998352050781
      vertex 112.20269775390625 82.884468078613281 54.252998352050781
    endloop
  endfacet
  facet normal -0 -0 1
    outer loop
      vertex 129.96714782714844 76.209465026855469 54.252998352050781
      vertex 121.08492279052734 82.884468078613281 54.252998352050781
      vertex 112.20269775390625 76.209465026855469 54.252998352050781
    endloop
  endfacet
  facet normal 0 0 1
    outer loop
      vertex 138.849365234375 82.884468078613281 54.252998352050781
      vertex 138.849365234375 86.221969604492188 54.252998352050781
      vertex 129.96714782714844 86.221969604492188 54.252998352050781
    endloop
  endfacet
  facet normal 0 -0 1
    outer loop
      vertex 138.849365234375 82.884468078613281 54.252998352050781
      vertex 129.96714782714844 86.221969604492188 54.252998352050781
      vertex 129.96714782714844 82.884468078613281 54.252998352050781
    endloop
  endfacet
  facet normal -0 -0 1
    outer loop
      vertex 94.438247680664062 89.559471130371094 54.252998352050781
      vertex 87.754562377929688 92.080322265625 54.252998352050781
      vertex 76.673797607421875 89.725372314453125 54.252998352050781
    endloop
  endfacet
  facet normal 0 -0 1
    outer loop
      vertex 94.438247680664062 89.559471130371094 54.252998352050781
      vertex 76.673797607421875 89.725372314453125 54.252998352050781
      vertex 94.438247680664062 82.884468078613281 54.252998352050781
    endloop
  endfacet
  facet normal 0 0 1
    outer loop
      vertex 78.819648742675781 79.629920959472656 54.252998352050781
      vertex 94.438247680664062 82.884468078613281 54.252998352050781
      vertex 76.673797607421875 89.725372314453125 54.252998352050781
    endloop
  endfacet
  facet normal 0 0 1
    outer loop
      vertex 94.438247680664062 89.559471130371094 54.252998352050781
      vertex 94.612892150878906 93.537895202636719 54.252998352050781
      vertex 87.754562377929688 92.080322265625 54.252998352050781
    endloop
  endfacet
  facet normal -0 -0 1
    outer loop
      vertex 112.20269775390625 89.559471130371094 54.252998352050781
      vertex 107.30109405517578 96.234466552734375 54.252998352050781
      vertex 94.612892150878906 93.537895202636719 54.252998352050781
    endloop
  endfacet
  facet normal 0 -0 1
    outer loop
      vertex 116.80108642578125 88.057563781738281 54.252998352050781
      vertex 112.20269775390625 89.559471130371094 54.252998352050781
      vertex 112.20269775390625 86.221969604492188 54.252998352050781
    endloop
  endfacet
  facet normal 0 0 1
    outer loop
      vertex 85.556022644042969 76.209465026855469 54.252998352050781
      vertex 94.438247680664062 82.884468078613281 54.252998352050781
      vertex 78.819648742675781 79.629920959472656 54.252998352050781
    endloop
  endfacet
  facet normal -0 -0 1
    outer loop
      vertex 94.612892150878906 93.537895202636719 54.252998352050781
      vertex 94.438247680664062 89.559471130371094 54.252998352050781
      vertex 112.20269775390625 89.559471130371094 54.252998352050781
    endloop
  endfacet
  facet normal 0 0 1
    outer loop
      vertex 78.819648742675781 79.629920959472656 54.252998352050781
      vertex 80.965492248535156 69.534469604492188 54.252998352050781
      vertex 85.556022644042969 72.871971130371094 54.252998352050781
    endloop
  endfacet
  facet normal 0 -0 1
    outer loop
      vertex 94.438247680664062 72.871971130371094 54.252998352050781
      vertex 85.556022644042969 72.871971130371094 54.252998352050781
      vertex 92.221656799316406 69.534469604492188 54.252998352050781
    endloop
  endfacet
  facet normal -0 -0 1
    outer loop
      vertex 85.556022644042969 72.871971130371094 54.252998352050781
      vertex 80.965492248535156 69.534469604492188 54.252998352050781
      vertex 92.221656799316406 69.534469604492188 54.252998352050781
    endloop
  endfacet
  facet normal -0 0 1
    outer loop
      vertex 85.556022644042969 76.209465026855469 54.252998352050781
      vertex 78.819648742675781 79.629920959472656 54.252998352050781
      vertex 85.556022644042969 72.871971130371094 54.252998352050781
    endloop
  endfacet
  facet normal -0 -0 1
    outer loop
      vertex 107.75131225585938 69.534469604492188 54.252998352050781
      vertex 103.32047271728516 72.871971130371094 54.252998352050781
      vertex 94.438247680664062 72.871971130371094 54.252998352050781
    endloop
  endfacet
  facet normal 0 -0 1
    outer loop
      vertex 107.75131225585938 69.534469604492188 54.252998352050781
      vertex 94.438247680664062 72.871971130371094 54.252998352050781
      vertex 95.038887023925781 69.534469604492188 54.252998352050781
    endloop
  endfacet
  facet normal 0 0 1
    outer loop
      vertex 103.32047271728516 72.871971130371094 54.252998352050781
      vertex 107.75131225585938 69.534469604492188 54.252998352050781
      vertex 112.20269775390625 72.871971130371094 54.252998352050781
    endloop
  endfacet
  facet normal 0 0 1
    outer loop
      vertex 92.221656799316406 69.534469604492188 54.252998352050781
      vertex 95.038887023925781 69.534469604492188 54.252998352050781
      vertex 94.438247680664062 72.871971130371094 54.252998352050781
    endloop
  endfacet
  facet normal 0 0 1
    outer loop
      vertex 94.438247680664062 76.209465026855469 54.252998352050781
      vertex 94.438247680664062 82.884468078613281 54.252998352050781
      vertex 85.556022644042969 76.209465026855469 54.252998352050781
    endloop
  endfacet
  facet normal 0 -0 1
    outer loop
      vertex 112.20269775390625 86.221969604492188 54.252998352050781
      vertex 112.20269775390625 82.884468078613281 54.252998352050781
      vertex 119.47869873046875 85.75286865234375 54.252998352050781
    endloop
  endfacet
  facet normal -0 -0 1
    outer loop
      vertex 119.47869873046875 85.75286865234375 54.252998352050781
      vertex 112.20269775390625 82.884468078613281 54.252998352050781
      vertex 121.08492279052734 82.884468078613281 54.252998352050781
    endloop
  endfacet
  facet normal 0 0 1
    outer loop
      vertex 121.08492279052734 82.884468078613281 54.252998352050781
      vertex 129.96714782714844 86.221969604492188 54.252998352050781
      vertex 119.47869873046875 85.75286865234375 54.252998352050781
    endloop
  endfacet
  facet normal -0 -0 1
    outer loop
      vertex 116.80108642578125 88.057563781738281 54.252998352050781
      vertex 112.20269775390625 86.221969604492188 54.252998352050781
      vertex 119.47869873046875 85.75286865234375 54.252998352050781
    endloop
  endfacet
  facet normal -0 0 1
    outer loop
      vertex 131.1822509765625 88.240570068359375 54.252998352050781
      vertex 143.216796875 89.171066284179688 54.252998352050781
      vertex 142.88580322265625 90.728271484375 54.252998352050781
    endloop
  endfacet
  facet normal -0 -0 1
    outer loop
      vertex 138.849365234375 86.221969604492188 54.252998352050781
      vertex 131.1822509765625 88.240570068359375 54.252998352050781
      vertex 129.96714782714844 86.221969604492188 54.252998352050781
    endloop
  endfacet
  facet normal 0 0 1
    outer loop
      vertex 119.47869873046875 85.75286865234375 54.252998352050781
      vertex 129.96714782714844 86.221969604492188 54.252998352050781
      vertex 131.1822509765625 88.240570068359375 54.252998352050781
    endloop
  endfacet
  facet normal 0 -0 1
    outer loop
      vertex 143.216796875 89.171066284179688 54.252998352050781
      vertex 131.1822509765625 88.240570068359375 54.252998352050781
      vertex 138.849365234375 86.221969604492188 54.252998352050781
    endloop
  endfacet
  facet normal 0 0 1
    outer loop
      vertex 129.96714782714844 82.884468078613281 54.252998352050781
      vertex 129.96714782714844 86.221969604492188 54.252998352050781
      vertex 121.08492279052734 82.884468078613281 54.252998352050781
    endloop
  endfacet
  facet normal 0 -0 1
    outer loop
      vertex 138.849365234375 86.221969604492188 54.252998352050781
      vertex 138.849365234375 82.884468078613281 54.252998352050781
      vertex 143.216796875 89.171066284179688 54.252998352050781
    endloop
  endfacet
  facet normal 0 0 1
    outer loop
      vertex 107.30109405517578 96.234466552734375 54.252998352050781
      vertex 112.20269775390625 89.559471130371094 54.252998352050781
      vertex 116.80108642578125 88.057563781738281 54.252998352050781
    endloop
  endfacet
  facet normal 0 0 1
    outer loop
      vertex 120.46373748779297 69.534469604492188 54.252998352050781
      vertex 129.96714782714844 76.209465026855469 54.252998352050781
      vertex 112.20269775390625 72.871971130371094 54.252998352050781
    endloop
  endfacet
  facet normal 0 -0 1
    outer loop
      vertex 112.20269775390625 76.209465026855469 54.252998352050781
      vertex 112.20269775390625 72.871971130371094 54.252998352050781
      vertex 129.96714782714844 76.209465026855469 54.252998352050781
    endloop
  endfacet
  facet normal -0 -0 1
    outer loop
      vertex 133.17616271972656 69.534469604492188 54.252998352050781
      vertex 129.96714782714844 76.209465026855469 54.252998352050781
      vertex 120.46373748779297 69.534469604492188 54.252998352050781
    endloop
  endfacet
  facet normal -0 0 1
    outer loop
      vertex 107.75131225585938 69.534469604492188 54.252998352050781
      vertex 120.46373748779297 69.534469604492188 54.252998352050781
      vertex 112.20269775390625 72.871971130371094 54.252998352050781
    endloop
  endfacet
  facet normal -0 0 1
    outer loop
      vertex 129.96714782714844 76.209465026855469 54.252998352050781
      vertex 141.13240051269531 79.364471435546875 54.252998352050781
      vertex 129.96714782714844 82.884468078613281 54.252998352050781
    endloop
  endfacet
  facet normal 0 -0 1
    outer loop
      vertex 141.13240051269531 79.364471435546875 54.252998352050781
      vertex 129.96714782714844 76.209465026855469 54.252998352050781
      vertex 147.73159790039062 77.603866577148438 54.252998352050781
    endloop
  endfacet
  facet normal -0 0 1
    outer loop
      vertex 141.13240051269531 79.364471435546875 54.252998352050781
      vertex 143.216796875 89.171066284179688 54.252998352050781
      vertex 138.849365234375 82.884468078613281 54.252998352050781
    endloop
  endfacet
  facet normal 0 0 1
    outer loop
      vertex 133.17616271972656 69.534469604492188 54.252998352050781
      vertex 145.88859558105469 69.534469604492188 54.252998352050781
      vertex 129.96714782714844 76.209465026855469 54.252998352050781
    endloop
  endfacet
  facet normal 0 0 1
    outer loop
      vertex 145.88859558105469 69.534469604492188 54.252998352050781
      vertex 147.73159790039062 77.603866577148438 54.252998352050781
      vertex 129.96714782714844 76.209465026855469 54.252998352050781
    endloop
  endfacet
  facet normal -0 -0 1
    outer loop
      vertex 138.849365234375 82.884468078613281 54.252998352050781
      vertex 129.96714782714844 82.884468078613281 54.252998352050781
      vertex 141.13240051269531 79.364471435546875 54.252998352050781
    endloop
  endfacet
endsolid OBJECT
