solid OBJECT
  facet normal -1 0 0
    outer loop
      vertex 243.17410278320312 117.93812561035156 5
      vertex 243.17410278320312 91.781646728515625 5
      vertex 243.17410278320312 91.781646728515625 59.5
    endloop
  endfacet
  facet normal -1 -0 0
    outer loop
      vertex 243.17410278320312 117.93812561035156 5
      vertex 243.17410278320312 91.781646728515625 59.5
      vertex 243.17410278320312 117.93812561035156 59.5
    endloop
  endfacet
  facet normal -0 -1 0
    outer loop
      vertex 243.17410278320312 91.781646728515625 5
      vertex 270.6552734375 91.781646728515625 5
      vertex 270.6552734375 91.781646728515625 59.5
    endloop
  endfacet
  facet normal 0 -1 0
    outer loop
      vertex 243.17410278320312 91.781646728515625 5
      vertex 270.6552734375 91.781646728515625 59.5
      vertex 243.17410278320312 91.781646728515625 59.5
    endloop
  endfacet
  facet normal 1 0 -0
    outer loop
      vertex 270.6552734375 91.781646728515625 5
      vertex 270.6552734375 117.93812561035156 5
      vertex 270.6552734375 117.93812561035156 59.5
    endloop
  endfacet
  facet normal 1 -0 0
    outer loop
      vertex 270.6552734375 91.781646728515625 5
      vertex 270.6552734375 117.93812561035156 59.5
      vertex 270.6552734375 91.781646728515625 59.5
    endloop
  endfacet
  facet normal -0 1 -0
    outer loop
      vertex 270.6552734375 117.93812561035156 5
      vertex 243.17410278320312 117.93812561035156 5
      vertex 243.17410278320312 117.93812561035156 59.5
    endloop
  endfacet
  facet normal 0 1 0
    outer loop
      vertex 270.6552734375 117.93812561035156 5
      vertex 243.17410278320312 117.93812561035156 59.5
      vertex 270.6552734375 117.93812561035156 59.5
    endloop
  endfacet
  facet normal -0 -0 -1
    outer loop
      vertex 270.6552734375 91.781646728515625 5
      vertex 243.17410278320312 91.781646728515625 5
      vertex 243.17410278320312 117.93812561035156 5
    endloop
  endfacet
  facet normal 0 0 -1
    outer loop
      vertex 243.17410278320312 117.93812561035156 5
      vertex 270.6552734375 117.93812561035156 5
      vertex 270.6552734375 91.781646728515625 5
    endloop
  endfacet
  facet normal 0 -0 1
    outer loop
      vertex 270.6552734375 91.781646728515625 59.5
      vertex 243.17410278320312 117.93812561035156 59.5
      vertex 243.17410278320312 91.781646728515625 59.5
    endloop
  endfacet
  facet normal 0 0 1
    outer loop
      vertex 243.17410278320312 117.93812561035156 59.5
      vertex 270.6552734375 91.781646728515625 59.5
      vertex 270.6552734375 117.93812561035156 59.5
    endloop
  endfacet
  facet normal -1 0 0
    outer loop
      vertex 293.46859741210938 120.95223236083984 5
      vertex 293.46859741210938 94.795753479003906 5
      vertex 293.46859741210938 94.795753479003906 59.5
    endloop
  endfacet
  facet normal -1 -0 0
    outer loop
      vertex 293.46859741210938 120.95223236083984 5
      vertex 293.46859741210938 94.795753479003906 59.5
      vertex 293.46859741210938 120.95223236083984 59.5
    endloop
  endfacet
  facet normal -0 -1 0
    outer loop
      vertex 293.46859741210938 94.795753479003906 5
      vertex 320.94976806640625 94.795753479003906 5
      vertex 320.94976806640625 94.795753479003906 59.5
    endloop
  endfacet
  facet normal 0 -1 0
    outer loop
      vertex 293.46859741210938 94.795753479003906 5
      vertex 320.94976806640625 94.795753479003906 59.5
      vertex 293.46859741210938 94.795753479003906 59.5
    endloop
  endfacet
  facet normal 1 0 -0
    outer loop
      vertex 320.94976806640625 94.795753479003906 5
      vertex 320.94976806640625 120.95223236083984 5
      vertex 320.94976806640625 120.95223236083984 59.5
    endloop
  endfacet
  facet normal 1 -0 0
    outer loop
      vertex 320.94976806640625 94.795753479003906 5
      vertex 320.94976806640625 120.95223236083984 59.5
      vertex 320.94976806640625 94.795753479003906 59.5
    endloop
  endfacet
  facet normal -0 1 -0
    outer loop
      vertex 320.94976806640625 120.95223236083984 5
      vertex 293.46859741210938 120.95223236083984 5
      vertex 293.46859741210938 120.95223236083984 59.5
    endloop
  endfacet
  facet normal 0 1 0
    outer loop
      vertex 320.94976806640625 120.95223236083984 5
      vertex 293.46859741210938 120.95223236083984 59.5
      vertex 320.94976806640625 120.95223236083984 59.5
    endloop
  endfacet
  facet normal -0 -0 -1
    outer loop
      vertex 320.94976806640625 94.795753479003906 5
      vertex 293.46859741210938 94.795753479003906 5
      vertex 293.46859741210938 120.95223236083984 5
    endloop
  endfacet
  facet normal 0 0 -1
    outer loop
      vertex 293.46859741210938 120.95223236083984 5
      vertex 320.94976806640625 120.95223236083984 5
      vertex 320.94976806640625 94.795753479003906 5
    endloop
  endfacet
  facet normal 0 -0 1
    outer loop
      vertex 320.94976806640625 94.795753479003906 59.5
      vertex 293.46859741210938 120.95223236083984 59.5
      vertex 293.46859741210938 94.795753479003906 59.5
    endloop
  endfacet
  facet normal 0 0 1
    outer loop
      vertex 293.46859741210938 120.95223236083984 59.5
      vertex 320.94976806640625 94.795753479003906 59.5
      vertex 320.94976806640625 120.95223236083984 59.5
    endloop
  endfacet
  facet normal -1 0 0
    outer loop
      vertex 207.56826782226562 -61.727630615234375 5
      vertex 207.56826782226562 -87.884109497070312 5
      vertex 207.56826782226562 -87.884109497070312 59.5
    endloop
  endfacet
  facet normal -1 -0 0
    outer loop
      vertex 207.56826782226562 -61.727630615234375 5
      vertex 207.56826782226562 -87.884109497070312 59.5
      vertex 207.56826782226562 -61.727630615234375 59.5
    endloop
  endfacet
  facet normal -0 -1 0
    outer loop
      vertex 207.56826782226562 -87.884109497070312 5
      vertex 259.478271484375 -87.884109497070312 5
      vertex 259.478271484375 -87.884109497070312 59.5
    endloop
  endfacet
  facet normal 0 -1 0
    outer loop
      vertex 207.56826782226562 -87.884109497070312 5
      vertex 259.478271484375 -87.884109497070312 59.5
      vertex 207.56826782226562 -87.884109497070312 59.5
    endloop
  endfacet
  facet normal 1 0 -0
    outer loop
      vertex 259.478271484375 -87.884109497070312 5
      vertex 259.478271484375 -61.727630615234375 5
      vertex 259.478271484375 -61.727630615234375 59.5
    endloop
  endfacet
  facet normal 1 -0 0
    outer loop
      vertex 259.478271484375 -87.884109497070312 5
      vertex 259.478271484375 -61.727630615234375 59.5
      vertex 259.478271484375 -87.884109497070312 59.5
    endloop
  endfacet
  facet normal -0 1 -0
    outer loop
      vertex 259.478271484375 -61.727630615234375 5
      vertex 207.56826782226562 -61.727630615234375 5
      vertex 207.56826782226562 -61.727630615234375 59.5
    endloop
  endfacet
  facet normal 0 1 0
    outer loop
      vertex 259.478271484375 -61.727630615234375 5
      vertex 207.56826782226562 -61.727630615234375 59.5
      vertex 259.478271484375 -61.727630615234375 59.5
    endloop
  endfacet
  facet normal -0 -0 -1
    outer loop
      vertex 259.478271484375 -87.884109497070312 5
      vertex 207.56826782226562 -87.884109497070312 5
      vertex 207.56826782226562 -61.727630615234375 5
    endloop
  endfacet
  facet normal 0 0 -1
    outer loop
      vertex 207.56826782226562 -61.727630615234375 5
      vertex 259.478271484375 -61.727630615234375 5
      vertex 259.478271484375 -87.884109497070312 5
    endloop
  endfacet
  facet normal 0 -0 1
    outer loop
      vertex 259.478271484375 -87.884109497070312 59.5
      vertex 207.56826782226562 -61.727630615234375 59.5
      vertex 207.56826782226562 -87.884109497070312 59.5
    endloop
  endfacet
  facet normal 0 0 1
    outer loop
      vertex 207.56826782226562 -61.727630615234375 59.5
      vertex 259.478271484375 -87.884109497070312 59.5
      vertex 259.478271484375 -61.727630615234375 59.5
    endloop
  endfacet
  facet normal -1 0 0
    outer loop
      vertex 207.29425048828125 -21.448230743408203 5
      vertex 207.29425048828125 -47.604709625244141 5
      vertex 207.29425048828125 -47.604709625244141 59.5
    endloop
  endfacet
  facet normal -1 -0 0
    outer loop
      vertex 207.29425048828125 -21.448230743408203 5
      vertex 207.29425048828125 -47.604709625244141 59.5
      vertex 207.29425048828125 -21.448230743408203 59.5
    endloop
  endfacet
  facet normal -0 -1 0
    outer loop
      vertex 207.29425048828125 -47.604709625244141 5
      vertex 259.20425415039062 -47.604709625244141 5
      vertex 259.20425415039062 -47.604709625244141 59.5
    endloop
  endfacet
  facet normal 0 -1 0
    outer loop
      vertex 207.29425048828125 -47.604709625244141 5
      vertex 259.20425415039062 -47.604709625244141 59.5
      vertex 207.29425048828125 -47.604709625244141 59.5
    endloop
  endfacet
  facet normal 1 0 -0
    outer loop
      vertex 259.20425415039062 -47.604709625244141 5
      vertex 259.20425415039062 -21.448230743408203 5
      vertex 259.20425415039062 -21.448230743408203 59.5
    endloop
  endfacet
  facet normal 1 -0 0
    outer loop
      vertex 259.20425415039062 -47.604709625244141 5
      vertex 259.20425415039062 -21.448230743408203 59.5
      vertex 259.20425415039062 -47.604709625244141 59.5
    endloop
  endfacet
  facet normal -0 1 -0
    outer loop
      vertex 259.20425415039062 -21.448230743408203 5
      vertex 207.29425048828125 -21.448230743408203 5
      vertex 207.29425048828125 -21.448230743408203 59.5
    endloop
  endfacet
  facet normal 0 1 0
    outer loop
      vertex 259.20425415039062 -21.448230743408203 5
      vertex 207.29425048828125 -21.448230743408203 59.5
      vertex 259.20425415039062 -21.448230743408203 59.5
    endloop
  endfacet
  facet normal -0 -0 -1
    outer loop
      vertex 259.20425415039062 -47.604709625244141 5
      vertex 207.29425048828125 -47.604709625244141 5
      vertex 207.29425048828125 -21.448230743408203 5
    endloop
  endfacet
  facet normal 0 0 -1
    outer loop
      vertex 207.29425048828125 -21.448230743408203 5
      vertex 259.20425415039062 -21.448230743408203 5
      vertex 259.20425415039062 -47.604709625244141 5
    endloop
  endfacet
  facet normal 0 -0 1
    outer loop
      vertex 259.20425415039062 -47.604709625244141 59.5
      vertex 207.29425048828125 -21.448230743408203 59.5
      vertex 207.29425048828125 -47.604709625244141 59.5
    endloop
  endfacet
  facet normal 0 0 1
    outer loop
      vertex 207.29425048828125 -21.448230743408203 59.5
      vertex 259.20425415039062 -47.604709625244141 59.5
      vertex 259.20425415039062 -21.448230743408203 59.5
    endloop
  endfacet
  facet normal -1 0 0
    outer loop
      vertex 276.58480834960938 34.502040863037109 5
      vertex 276.58480834960938 8.3455610275268555 5
      vertex 276.58480834960938 8.3455610275268555 59.5
    endloop
  endfacet
  facet normal -1 -0 0
    outer loop
      vertex 276.58480834960938 34.502040863037109 5
      vertex 276.58480834960938 8.3455610275268555 59.5
      vertex 276.58480834960938 34.502040863037109 59.5
    endloop
  endfacet
  facet normal -0 -1 0
    outer loop
      vertex 276.58480834960938 8.3455610275268555 5
      vertex 304.06594848632812 8.3455610275268555 5
      vertex 304.06594848632812 8.3455610275268555 59.5
    endloop
  endfacet
  facet normal 0 -1 0
    outer loop
      vertex 276.58480834960938 8.3455610275268555 5
      vertex 304.06594848632812 8.3455610275268555 59.5
      vertex 276.58480834960938 8.3455610275268555 59.5
    endloop
  endfacet
  facet normal 1 0 -0
    outer loop
      vertex 304.06594848632812 8.3455610275268555 5
      vertex 304.06594848632812 34.502040863037109 5
      vertex 304.06594848632812 34.502040863037109 59.5
    endloop
  endfacet
  facet normal 1 -0 0
    outer loop
      vertex 304.06594848632812 8.3455610275268555 5
      vertex 304.06594848632812 34.502040863037109 59.5
      vertex 304.06594848632812 8.3455610275268555 59.5
    endloop
  endfacet
  facet normal -0 1 -0
    outer loop
      vertex 304.06594848632812 34.502040863037109 5
      vertex 276.58480834960938 34.502040863037109 5
      vertex 276.58480834960938 34.502040863037109 59.5
    endloop
  endfacet
  facet normal 0 1 0
    outer loop
      vertex 304.06594848632812 34.502040863037109 5
      vertex 276.58480834960938 34.502040863037109 59.5
      vertex 304.06594848632812 34.502040863037109 59.5
    endloop
  endfacet
  facet normal -0 -0 -1
    outer loop
      vertex 304.06594848632812 8.3455610275268555 5
      vertex 276.58480834960938 8.3455610275268555 5
      vertex 276.58480834960938 34.502040863037109 5
    endloop
  endfacet
  facet normal 0 0 -1
    outer loop
      vertex 276.58480834960938 34.502040863037109 5
      vertex 304.06594848632812 34.502040863037109 5
      vertex 304.06594848632812 8.3455610275268555 5
    endloop
  endfacet
  facet normal 0 -0 1
    outer loop
      vertex 304.06594848632812 8.3455610275268555 59.5
      vertex 276.58480834960938 34.502040863037109 59.5
      vertex 276.58480834960938 8.3455610275268555 59.5
    endloop
  endfacet
  facet normal 0 0 1
    outer loop
      vertex 276.58480834960938 34.502040863037109 59.5
      vertex 304.06594848632812 8.3455610275268555 59.5
      vertex 304.06594848632812 34.502040863037109 59.5
    endloop
  endfacet
  facet normal -1 0 0
    outer loop
      vertex 206.95597839355469 34.030239105224609 5
      vertex 206.95597839355469 7.8737602233886719 5
      vertex 206.95597839355469 7.8737602233886719 59.5
    endloop
  endfacet
  facet normal -1 -0 0
    outer loop
      vertex 206.95597839355469 34.030239105224609 5
      vertex 206.95597839355469 7.8737602233886719 59.5
      vertex 206.95597839355469 34.030239105224609 59.5
    endloop
  endfacet
  facet normal -0 -1 0
    outer loop
      vertex 206.95597839355469 7.8737602233886719 5
      vertex 258.865966796875 7.8737602233886719 5
      vertex 258.865966796875 7.8737602233886719 59.5
    endloop
  endfacet
  facet normal 0 -1 0
    outer loop
      vertex 206.95597839355469 7.8737602233886719 5
      vertex 258.865966796875 7.8737602233886719 59.5
      vertex 206.95597839355469 7.8737602233886719 59.5
    endloop
  endfacet
  facet normal 1 0 -0
    outer loop
      vertex 258.865966796875 7.8737602233886719 5
      vertex 258.865966796875 34.030239105224609 5
      vertex 258.865966796875 34.030239105224609 59.5
    endloop
  endfacet
  facet normal 1 -0 0
    outer loop
      vertex 258.865966796875 7.8737602233886719 5
      vertex 258.865966796875 34.030239105224609 59.5
      vertex 258.865966796875 7.8737602233886719 59.5
    endloop
  endfacet
  facet normal -0 1 -0
    outer loop
      vertex 258.865966796875 34.030239105224609 5
      vertex 206.95597839355469 34.030239105224609 5
      vertex 206.95597839355469 34.030239105224609 59.5
    endloop
  endfacet
  facet normal 0 1 0
    outer loop
      vertex 258.865966796875 34.030239105224609 5
      vertex 206.95597839355469 34.030239105224609 59.5
      vertex 258.865966796875 34.030239105224609 59.5
    endloop
  endfacet
  facet normal -0 -0 -1
    outer loop
      vertex 258.865966796875 7.8737602233886719 5
      vertex 206.95597839355469 7.8737602233886719 5
      vertex 206.95597839355469 34.030239105224609 5
    endloop
  endfacet
  facet normal 0 0 -1
    outer loop
      vertex 206.95597839355469 34.030239105224609 5
      vertex 258.865966796875 34.030239105224609 5
      vertex 258.865966796875 7.8737602233886719 5
    endloop
  endfacet
  facet normal 0 -0 1
    outer loop
      vertex 258.865966796875 7.8737602233886719 59.5
      vertex 206.95597839355469 34.030239105224609 59.5
      vertex 206.95597839355469 7.8737602233886719 59.5
    endloop
  endfacet
  facet normal 0 0 1
    outer loop
      vertex 206.95597839355469 34.030239105224609 59.5
      vertex 258.865966796875 7.8737602233886719 59.5
      vertex 258.865966796875 34.030239105224609 59.5
    endloop
  endfacet
  facet normal -1 0 0
    outer loop
      vertex 206.8399658203125 82.529922485351562 5
      vertex 206.8399658203125 56.373443603515625 5
      vertex 206.8399658203125 56.373443603515625 59.5
    endloop
  endfacet
  facet normal -1 -0 0
    outer loop
      vertex 206.8399658203125 82.529922485351562 5
      vertex 206.8399658203125 56.373443603515625 59.5
      vertex 206.8399658203125 82.529922485351562 59.5
    endloop
  endfacet
  facet normal -0 -1 0
    outer loop
      vertex 206.8399658203125 56.373443603515625 5
      vertex 234.32112121582031 56.373443603515625 5
      vertex 234.32112121582031 56.373443603515625 59.5
    endloop
  endfacet
  facet normal 0 -1 0
    outer loop
      vertex 206.8399658203125 56.373443603515625 5
      vertex 234.32112121582031 56.373443603515625 59.5
      vertex 206.8399658203125 56.373443603515625 59.5
    endloop
  endfacet
  facet normal 1 0 -0
    outer loop
      vertex 234.32112121582031 56.373443603515625 5
      vertex 234.32112121582031 82.529922485351562 5
      vertex 234.32112121582031 82.529922485351562 59.5
    endloop
  endfacet
  facet normal 1 -0 0
    outer loop
      vertex 234.32112121582031 56.373443603515625 5
      vertex 234.32112121582031 82.529922485351562 59.5
      vertex 234.32112121582031 56.373443603515625 59.5
    endloop
  endfacet
  facet normal -0 1 -0
    outer loop
      vertex 234.32112121582031 82.529922485351562 5
      vertex 206.8399658203125 82.529922485351562 5
      vertex 206.8399658203125 82.529922485351562 59.5
    endloop
  endfacet
  facet normal 0 1 0
    outer loop
      vertex 234.32112121582031 82.529922485351562 5
      vertex 206.8399658203125 82.529922485351562 59.5
      vertex 234.32112121582031 82.529922485351562 59.5
    endloop
  endfacet
  facet normal -0 -0 -1
    outer loop
      vertex 234.32112121582031 56.373443603515625 5
      vertex 206.8399658203125 56.373443603515625 5
      vertex 206.8399658203125 82.529922485351562 5
    endloop
  endfacet
  facet normal 0 0 -1
    outer loop
      vertex 206.8399658203125 82.529922485351562 5
      vertex 234.32112121582031 82.529922485351562 5
      vertex 234.32112121582031 56.373443603515625 5
    endloop
  endfacet
  facet normal 0 -0 1
    outer loop
      vertex 234.32112121582031 56.373443603515625 59.5
      vertex 206.8399658203125 82.529922485351562 59.5
      vertex 206.8399658203125 56.373443603515625 59.5
    endloop
  endfacet
  facet normal 0 0 1
    outer loop
      vertex 206.8399658203125 82.529922485351562 59.5
      vertex 234.32112121582031 56.373443603515625 59.5
      vertex 234.32112121582031 82.529922485351562 59.5
    endloop
  endfacet
  facet normal -1 -0 -0
    outer loop
      vertex 161.61111450195312 21.397192001342773 5
      vertex 161.61111450195312 -34.618213653564453 5
      vertex 161.61111450195312 -34.618213653564453 36.8033447265625
    endloop
  endfacet
  facet normal -1 -0 -0
    outer loop
      vertex 161.61111450195312 21.397192001342773 5
      vertex 161.61111450195312 -34.618213653564453 36.8033447265625
      vertex 161.61111450195312 21.397192001342773 36.8033447265625
    endloop
  endfacet
  facet normal -0 -1 0
    outer loop
      vertex 161.61111450195312 -34.618213653564453 5
      vertex 182.21730041503906 -34.618213653564453 5
      vertex 182.21730041503906 -34.618213653564453 36.8033447265625
    endloop
  endfacet
  facet normal 0 -1 0
    outer loop
      vertex 161.61111450195312 -34.618213653564453 5
      vertex 182.21730041503906 -34.618213653564453 36.8033447265625
      vertex 161.61111450195312 -34.618213653564453 36.8033447265625
    endloop
  endfacet
  facet normal 1 -0 0
    outer loop
      vertex 182.21730041503906 -34.618213653564453 5
      vertex 182.21730041503906 21.397192001342773 5
      vertex 182.21730041503906 21.397192001342773 36.8033447265625
    endloop
  endfacet
  facet normal 1 -0 0
    outer loop
      vertex 182.21730041503906 -34.618213653564453 5
      vertex 182.21730041503906 21.397192001342773 36.8033447265625
      vertex 182.21730041503906 -34.618213653564453 36.8033447265625
    endloop
  endfacet
  facet normal -0 1 -0
    outer loop
      vertex 182.21730041503906 21.397192001342773 5
      vertex 161.61111450195312 21.397192001342773 5
      vertex 161.61111450195312 21.397192001342773 36.8033447265625
    endloop
  endfacet
  facet normal 0 1 0
    outer loop
      vertex 182.21730041503906 21.397192001342773 5
      vertex 161.61111450195312 21.397192001342773 36.8033447265625
      vertex 182.21730041503906 21.397192001342773 36.8033447265625
    endloop
  endfacet
  facet normal -0 0 -1
    outer loop
      vertex 161.61111450195312 -34.618213653564453 5
      vertex 161.61111450195312 21.397192001342773 5
      vertex 182.21730041503906 21.397192001342773 5
    endloop
  endfacet
  facet normal 0 -0 -1
    outer loop
      vertex 182.21730041503906 21.397192001342773 5
      vertex 182.21730041503906 -34.618213653564453 5
      vertex 161.61111450195312 -34.618213653564453 5
    endloop
  endfacet
  facet normal -0 0 1
    outer loop
      vertex 161.61111450195312 -34.618213653564453 36.8033447265625
      vertex 182.21730041503906 21.397192001342773 36.8033447265625
      vertex 161.61111450195312 21.397192001342773 36.8033447265625
    endloop
  endfacet
  facet normal 0 0 1
    outer loop
      vertex 182.21730041503906 21.397192001342773 36.8033447265625
      vertex 161.61111450195312 -34.618213653564453 36.8033447265625
      vertex 182.21730041503906 -34.618213653564453 36.8033447265625
    endloop
  endfacet
  facet normal 0 -1 -0
    outer loop
      vertex 102.77793121337891 -34.454219818115234 5
      vertex 158.7933349609375 -34.454219818115234 5
      vertex 158.7933349609375 -34.454219818115234 36.8033447265625
    endloop
  endfacet
  facet normal 0 -1 -0
    outer loop
      vertex 102.77793121337891 -34.454219818115234 5
      vertex 158.7933349609375 -34.454219818115234 36.8033447265625
      vertex 102.77793121337891 -34.454219818115234 36.8033447265625
    endloop
  endfacet
  facet normal 1 0 -0
    outer loop
      vertex 158.7933349609375 -34.454219818115234 5
      vertex 158.7933349609375 -13.848039627075195 5
      vertex 158.7933349609375 -13.848039627075195 36.8033447265625
    endloop
  endfacet
  facet normal 1 -0 0
    outer loop
      vertex 158.7933349609375 -34.454219818115234 5
      vertex 158.7933349609375 -13.848039627075195 36.8033447265625
      vertex 158.7933349609375 -34.454219818115234 36.8033447265625
    endloop
  endfacet
  facet normal 0 1 0
    outer loop
      vertex 158.7933349609375 -13.848039627075195 5
      vertex 102.77793121337891 -13.848039627075195 5
      vertex 102.77793121337891 -13.848039627075195 36.8033447265625
    endloop
  endfacet
  facet normal 0 1 0
    outer loop
      vertex 158.7933349609375 -13.848039627075195 5
      vertex 102.77793121337891 -13.848039627075195 36.8033447265625
      vertex 158.7933349609375 -13.848039627075195 36.8033447265625
    endloop
  endfacet
  facet normal -1 0 0
    outer loop
      vertex 102.77793121337891 -13.848039627075195 5
      vertex 102.77793121337891 -34.454219818115234 5
      vertex 102.77793121337891 -34.454219818115234 36.8033447265625
    endloop
  endfacet
  facet normal -1 -0 0
    outer loop
      vertex 102.77793121337891 -13.848039627075195 5
      vertex 102.77793121337891 -34.454219818115234 36.8033447265625
      vertex 102.77793121337891 -13.848039627075195 36.8033447265625
    endloop
  endfacet
  facet normal -0 -0 -1
    outer loop
      vertex 158.7933349609375 -34.454219818115234 5
      vertex 102.77793121337891 -34.454219818115234 5
      vertex 102.77793121337891 -13.848039627075195 5
    endloop
  endfacet
  facet normal 0 0 -1
    outer loop
      vertex 102.77793121337891 -13.848039627075195 5
      vertex 158.7933349609375 -13.848039627075195 5
      vertex 158.7933349609375 -34.454219818115234 5
    endloop
  endfacet
  facet normal 0 -0 1
    outer loop
      vertex 158.7933349609375 -34.454219818115234 36.8033447265625
      vertex 102.77793121337891 -13.848039627075195 36.8033447265625
      vertex 102.77793121337891 -34.454219818115234 36.8033447265625
    endloop
  endfacet
  facet normal 0 0 1
    outer loop
      vertex 102.77793121337891 -13.848039627075195 36.8033447265625
      vertex 158.7933349609375 -34.454219818115234 36.8033447265625
      vertex 158.7933349609375 -13.848039627075195 36.8033447265625
    endloop
  endfacet
  facet normal 0 -1 -0
    outer loop
      vertex 29.692022323608398 -35.289485931396484 5
      vertex 85.707427978515625 -35.289485931396484 5
      vertex 85.707427978515625 -35.289485931396484 36.8033447265625
    endloop
  endfacet
  facet normal 0 -1 -0
    outer loop
      vertex 29.692022323608398 -35.289485931396484 5
      vertex 85.707427978515625 -35.289485931396484 36.8033447265625
      vertex 29.692022323608398 -35.289485931396484 36.8033447265625
    endloop
  endfacet
  facet normal 1 0 -0
    outer loop
      vertex 85.707427978515625 -35.289485931396484 5
      vertex 85.707427978515625 -14.683307647705078 5
      vertex 85.707427978515625 -14.683307647705078 36.8033447265625
    endloop
  endfacet
  facet normal 1 -0 0
    outer loop
      vertex 85.707427978515625 -35.289485931396484 5
      vertex 85.707427978515625 -14.683307647705078 36.8033447265625
      vertex 85.707427978515625 -35.289485931396484 36.8033447265625
    endloop
  endfacet
  facet normal 0 1 0
    outer loop
      vertex 85.707427978515625 -14.683307647705078 5
      vertex 29.692022323608398 -14.683307647705078 5
      vertex 29.692022323608398 -14.683307647705078 36.8033447265625
    endloop
  endfacet
  facet normal 0 1 0
    outer loop
      vertex 85.707427978515625 -14.683307647705078 5
      vertex 29.692022323608398 -14.683307647705078 36.8033447265625
      vertex 85.707427978515625 -14.683307647705078 36.8033447265625
    endloop
  endfacet
  facet normal -1 0 0
    outer loop
      vertex 29.692022323608398 -14.683307647705078 5
      vertex 29.692022323608398 -35.289485931396484 5
      vertex 29.692022323608398 -35.289485931396484 36.8033447265625
    endloop
  endfacet
  facet normal -1 -0 0
    outer loop
      vertex 29.692022323608398 -14.683307647705078 5
      vertex 29.692022323608398 -35.289485931396484 36.8033447265625
      vertex 29.692022323608398 -14.683307647705078 36.8033447265625
    endloop
  endfacet
  facet normal -0 -0 -1
    outer loop
      vertex 85.707427978515625 -35.289485931396484 5
      vertex 29.692022323608398 -35.289485931396484 5
      vertex 29.692022323608398 -14.683307647705078 5
    endloop
  endfacet
  facet normal 0 0 -1
    outer loop
      vertex 29.692022323608398 -14.683307647705078 5
      vertex 85.707427978515625 -14.683307647705078 5
      vertex 85.707427978515625 -35.289485931396484 5
    endloop
  endfacet
  facet normal 0 -0 1
    outer loop
      vertex 85.707427978515625 -35.289485931396484 36.8033447265625
      vertex 29.692022323608398 -14.683307647705078 36.8033447265625
      vertex 29.692022323608398 -35.289485931396484 36.8033447265625
    endloop
  endfacet
  facet normal 0 0 1
    outer loop
      vertex 29.692022323608398 -14.683307647705078 36.8033447265625
      vertex 85.707427978515625 -35.289485931396484 36.8033447265625
      vertex 85.707427978515625 -14.683307647705078 36.8033447265625
    endloop
  endfacet
  facet normal 0 -1 -0
    outer loop
      vertex 29.692022323608398 -71.525642395019531 5
      vertex 85.707427978515625 -71.525642395019531 5
      vertex 85.707427978515625 -71.525642395019531 36.8033447265625
    endloop
  endfacet
  facet normal 0 -1 -0
    outer loop
      vertex 29.692022323608398 -71.525642395019531 5
      vertex 85.707427978515625 -71.525642395019531 36.8033447265625
      vertex 29.692022323608398 -71.525642395019531 36.8033447265625
    endloop
  endfacet
  facet normal 1 0 -0
    outer loop
      vertex 85.707427978515625 -71.525642395019531 5
      vertex 85.707427978515625 -50.919460296630859 5
      vertex 85.707427978515625 -50.919460296630859 36.8033447265625
    endloop
  endfacet
  facet normal 1 -0 0
    outer loop
      vertex 85.707427978515625 -71.525642395019531 5
      vertex 85.707427978515625 -50.919460296630859 36.8033447265625
      vertex 85.707427978515625 -71.525642395019531 36.8033447265625
    endloop
  endfacet
  facet normal 0 1 0
    outer loop
      vertex 85.707427978515625 -50.919460296630859 5
      vertex 29.692022323608398 -50.919460296630859 5
      vertex 29.692022323608398 -50.919460296630859 36.8033447265625
    endloop
  endfacet
  facet normal 0 1 0
    outer loop
      vertex 85.707427978515625 -50.919460296630859 5
      vertex 29.692022323608398 -50.919460296630859 36.8033447265625
      vertex 85.707427978515625 -50.919460296630859 36.8033447265625
    endloop
  endfacet
  facet normal -1 0 0
    outer loop
      vertex 29.692022323608398 -50.919460296630859 5
      vertex 29.692022323608398 -71.525642395019531 5
      vertex 29.692022323608398 -71.525642395019531 36.8033447265625
    endloop
  endfacet
  facet normal -1 -0 0
    outer loop
      vertex 29.692022323608398 -50.919460296630859 5
      vertex 29.692022323608398 -71.525642395019531 36.8033447265625
      vertex 29.692022323608398 -50.919460296630859 36.8033447265625
    endloop
  endfacet
  facet normal -0 -0 -1
    outer loop
      vertex 85.707427978515625 -71.525642395019531 5
      vertex 29.692022323608398 -71.525642395019531 5
      vertex 29.692022323608398 -50.919460296630859 5
    endloop
  endfacet
  facet normal 0 0 -1
    outer loop
      vertex 29.692022323608398 -50.919460296630859 5
      vertex 85.707427978515625 -50.919460296630859 5
      vertex 85.707427978515625 -71.525642395019531 5
    endloop
  endfacet
  facet normal 0 -0 1
    outer loop
      vertex 85.707427978515625 -71.525642395019531 36.8033447265625
      vertex 29.692022323608398 -50.919460296630859 36.8033447265625
      vertex 29.692022323608398 -71.525642395019531 36.8033447265625
    endloop
  endfacet
  facet normal 0 0 1
    outer loop
      vertex 29.692022323608398 -50.919460296630859 36.8033447265625
      vertex 85.707427978515625 -71.525642395019531 36.8033447265625
      vertex 85.707427978515625 -50.919460296630859 36.8033447265625
    endloop
  endfacet
  facet normal 0 -1 -0
    outer loop
      vertex 30.220901489257812 0.96061187982559204 5
      vertex 128.40364074707031 0.96061187982559204 5
      vertex 128.40364074707031 0.96061187982559204 43.696315765380859
    endloop
  endfacet
  facet normal 0 -1 -0
    outer loop
      vertex 30.220901489257812 0.96061187982559204 5
      vertex 128.40364074707031 0.96061187982559204 43.696315765380859
      vertex 30.220901489257812 0.96061187982559204 43.696315765380859
    endloop
  endfacet
  facet normal 1 0 -0
    outer loop
      vertex 128.40364074707031 0.96061187982559204 5
      vertex 128.40364074707031 37.0787353515625 5
      vertex 128.40364074707031 37.0787353515625 43.696315765380859
    endloop
  endfacet
  facet normal 1 -0 0
    outer loop
      vertex 128.40364074707031 0.96061187982559204 5
      vertex 128.40364074707031 37.0787353515625 43.696315765380859
      vertex 128.40364074707031 0.96061187982559204 43.696315765380859
    endloop
  endfacet
  facet normal 0 1 0
    outer loop
      vertex 128.40364074707031 37.0787353515625 5
      vertex 30.220901489257812 37.0787353515625 5
      vertex 30.220901489257812 37.0787353515625 43.696315765380859
    endloop
  endfacet
  facet normal 0 1 0
    outer loop
      vertex 128.40364074707031 37.0787353515625 5
      vertex 30.220901489257812 37.0787353515625 43.696315765380859
      vertex 128.40364074707031 37.0787353515625 43.696315765380859
    endloop
  endfacet
  facet normal -1 0 0
    outer loop
      vertex 30.220901489257812 37.0787353515625 5
      vertex 30.220901489257812 0.96061187982559204 5
      vertex 30.220901489257812 0.96061187982559204 43.696315765380859
    endloop
  endfacet
  facet normal -1 -0 0
    outer loop
      vertex 30.220901489257812 37.0787353515625 5
      vertex 30.220901489257812 0.96061187982559204 43.696315765380859
      vertex 30.220901489257812 37.0787353515625 43.696315765380859
    endloop
  endfacet
  facet normal -0 -0 -1
    outer loop
      vertex 128.40364074707031 0.96061187982559204 5
      vertex 30.220901489257812 0.96061187982559204 5
      vertex 30.220901489257812 37.0787353515625 5
    endloop
  endfacet
  facet normal 0 0 -1
    outer loop
      vertex 30.220901489257812 37.0787353515625 5
      vertex 128.40364074707031 37.0787353515625 5
      vertex 128.40364074707031 0.96061187982559204 5
    endloop
  endfacet
  facet normal 0 -0 1
    outer loop
      vertex 128.40364074707031 0.96061187982559204 43.696315765380859
      vertex 30.220901489257812 37.0787353515625 43.696315765380859
      vertex 30.220901489257812 0.96061187982559204 43.696315765380859
    endloop
  endfacet
  facet normal 0 0 1
    outer loop
      vertex 30.220901489257812 37.0787353515625 43.696315765380859
      vertex 128.40364074707031 0.96061187982559204 43.696315765380859
      vertex 128.40364074707031 37.0787353515625 43.696315765380859
    endloop
  endfacet
endsolid OBJECT
