solid OBJECT
  facet normal -0.20788560683233812 0.9781531446925632 0
    outer loop
      vertex 5.2809312478530046e-11 36.149589538574219 1.9999998807907104
      vertex 108.48275756835938 59.205287933349609 1.9999998807907104
      vertex 108.48275756835938 59.205287933349609 -1.5615248116773728e-07
    endloop
  endfacet
  facet normal -0.20788560683233812 0.9781531446925632 -0
    outer loop
      vertex 5.2809312478530046e-11 36.149589538574219 1.9999998807907104
      vertex 108.48275756835938 59.205287933349609 -1.5615248116773728e-07
      vertex 5.2809312478530046e-11 36.149589538574219 -1.5615248116773728e-07
    endloop
  endfacet
  facet normal 0.70711246369097835 0.70710109863644999 0
    outer loop
      vertex 108.48275756835938 59.205287933349609 1.9999998807907104
      vertex 121.06175231933594 46.626091003417969 1.9999998807907104
      vertex 121.06175231933594 46.626091003417969 -1.5615248116773728e-07
    endloop
  endfacet
  facet normal 0.70711246369097835 0.70710109863644999 -0
    outer loop
      vertex 108.48275756835938 59.205287933349609 1.9999998807907104
      vertex 121.06175231933594 46.626091003417969 -1.5615248116773728e-07
      vertex 108.48275756835938 59.205287933349609 -1.5615248116773728e-07
    endloop
  endfacet
  facet normal 1 0 -0
    outer loop
      vertex 121.06175231933594 46.626091003417969 1.9999998807907104
      vertex 121.06175231933594 4.3832778930664062 1.9999998807907104
      vertex 121.06175231933594 4.3832778930664062 -1.5615248116773728e-07
    endloop
  endfacet
  facet normal 1 0 -0
    outer loop
      vertex 121.06175231933594 46.626091003417969 1.9999998807907104
      vertex 121.06175231933594 4.3832778930664062 -1.5615248116773728e-07
      vertex 121.06175231933594 46.626091003417969 -1.5615248116773728e-07
    endloop
  endfacet
  facet normal -0 -1 0
    outer loop
      vertex 121.06175231933594 4.3832778930664062 1.9999998807907104
      vertex 6.7521600723266602 4.3832778930664062 1.9999998807907104
      vertex 6.7521600723266602 4.3832778930664062 -1.5615248116773728e-07
    endloop
  endfacet
  facet normal -0 -1 0
    outer loop
      vertex 121.06175231933594 4.3832778930664062 1.9999998807907104
      vertex 6.7521600723266602 4.3832778930664062 -1.5615248116773728e-07
      vertex 121.06175231933594 4.3832778930664062 -1.5615248116773728e-07
    endloop
  endfacet
  facet normal -0.9781474623912173 -0.20791234166740119 0
    outer loop
      vertex 6.7521600723266602 4.3832778930664062 1.9999998807907104
      vertex 5.2809312478530046e-11 36.149589538574219 1.9999998807907104
      vertex 5.2809312478530046e-11 36.149589538574219 -1.5615248116773728e-07
    endloop
  endfacet
  facet normal -0.9781474623912173 -0.20791234166740119 0
    outer loop
      vertex 6.7521600723266602 4.3832778930664062 1.9999998807907104
      vertex 5.2809312478530046e-11 36.149589538574219 -1.5615248116773728e-07
      vertex 6.7521600723266602 4.3832778930664062 -1.5615248116773728e-07
    endloop
  endfacet
  facet normal 0 0 1
    outer loop
      vertex 108.48275756835938 59.205287933349609 1.9999998807907104
      vertex 121.06175231933594 4.3832778930664062 1.9999998807907104
      vertex 121.06175231933594 46.626091003417969 1.9999998807907104
    endloop
  endfacet
  facet normal 0 0 1
    outer loop
      vertex 5.2809312478530046e-11 36.149589538574219 1.9999998807907104
      vertex 6.7521600723266602 4.3832778930664062 1.9999998807907104
      vertex 108.48275756835938 59.205287933349609 1.9999998807907104
    endloop
  endfacet
  facet normal -0 -0 1
    outer loop
      vertex 121.06175231933594 4.3832778930664062 1.9999998807907104
      vertex 108.48275756835938 59.205287933349609 1.9999998807907104
      vertex 6.7521600723266602 4.3832778930664062 1.9999998807907104
    endloop
  endfacet
  facet normal 0 0 -1
    outer loop
      vertex 108.48275756835938 59.205287933349609 -1.5615248116773728e-07
      vertex 121.06175231933594 46.626091003417969 -1.5615248116773728e-07
      vertex 121.06175231933594 4.3832778930664062 -1.5615248116773728e-07
    endloop
  endfacet
  facet normal 0 0 -1
    outer loop
      vertex 5.2809312478530046e-11 36.149589538574219 -1.5615248116773728e-07
      vertex 108.48275756835938 59.205287933349609 -1.5615248116773728e-07
      vertex 6.7521600723266602 4.3832778930664062 -1.5615248116773728e-07
    endloop
  endfacet
  facet normal -0 -0 -1
    outer loop
      vertex 121.06175231933594 4.3832778930664062 -1.5615248116773728e-07
      vertex 6.7521600723266602 4.3832778930664062 -1.5615248116773728e-07
      vertex 108.48275756835938 59.205287933349609 -1.5615248116773728e-07
    endloop
  endfacet
endsolid OBJECT
