solid OBJECT
  facet normal -0 -1 -0
    outer loop
      vertex 95.038887023925781 69.534469604492188 49.900001525878906
      vertex 95.038887023925781 69.534469604492188 54.252998352050781
      vertex 86.391159057617188 69.534469604492188 54.252998352050781
    endloop
  endfacet
  facet normal 0 -1 0
    outer loop
      vertex 95.038887023925781 69.534469604492188 49.900001525878906
      vertex 86.391159057617188 69.534469604492188 54.252998352050781
      vertex 86.391159057617188 69.534469604492188 49.900001525878906
    endloop
  endfacet
  facet normal -0.20788302668708802 0.97815369304389743 0
    outer loop
      vertex 87.754562377929688 92.080322265625 11
      vertex 94.612892150878906 93.537895202636719 11
      vertex 94.612892150878906 93.537895202636719 5
    endloop
  endfacet
  facet normal -0.20788302668708802 0.97815369304389743 -0
    outer loop
      vertex 87.754562377929688 92.080322265625 11
      vertex 94.612892150878906 93.537895202636719 5
      vertex 87.754562377929688 92.080322265625 5
    endloop
  endfacet
endsolid OBJECT
